<svg xmlns="http://www.w3.org/2000/svg" fill="none" viewBox="0 0 521 398"><path fill="#E02F35" d="M512.755 341.464h-.096l-9.918-26.991c1.621-1.335 2.67-3.338 2.67-5.627 0-2.67-1.462-4.991-3.592-6.262l1.208-6.041c3.624-.445 6.453-3.497 6.453-7.248 0-4.037-3.274-7.344-7.343-7.344-.445 0-.89.064-1.335.128l-30.297-45.239a7.272 7.272 0 0 0 1.431-4.323c0-4.037-3.275-7.344-7.344-7.344a7.368 7.368 0 0 0-3.02.668l-28.548-29.693a7.11 7.11 0 0 0 .795-3.274c0-4.037-3.275-7.344-7.344-7.344a6.94 6.94 0 0 0-3.338.859l-23.589-22.063c.382-.89.604-1.876.604-2.925 0-4.037-3.274-7.343-7.343-7.343a7.16 7.16 0 0 0-3.37.858l-18.725-17.517c.382-.89.604-1.875.604-2.924 0-4.038-3.274-7.344-7.343-7.344-2.13 0-4.038.922-5.405 2.384l-62.214-26.322c0-4.038-3.275-7.312-7.344-7.312a7.318 7.318 0 0 0-6.199 3.433l-57.446-8.774c-.636-3.402-3.592-6.009-7.184-6.009-3.211 0-5.882 2.067-6.899 4.896h-34.525c-1.017-2.861-3.687-4.896-6.898-4.896-3.783 0-6.835 2.862-7.249 6.517l-30.9 7.185c-1.304-2.034-3.561-3.401-6.167-3.401-3.434 0-6.263 2.352-7.09 5.531l-22.126 2.003c-1.176-2.511-3.688-4.26-6.644-4.26a7.196 7.196 0 0 0-5.437 2.48l-25.591-10.46c0-.222.064-.476.064-.699 0-4.037-3.275-7.344-7.344-7.344-1.272 0-2.448.35-3.497.922l-19.17-19.17-8.138-18.215c1.621-1.336 2.702-3.37 2.702-5.627 0-3.497-2.48-6.422-5.754-7.153l-.89-31.187L12.465 0 5.63 7.121l-.667 1.304L.32 33.952v.827l3.465 21.014C1.624 57.064.162 59.385.162 62.087c0 4.038 3.275 7.344 7.344 7.344.381 0 .763-.064 1.144-.127L16.407 82.4c-1.049 1.272-1.717 2.893-1.717 4.674 0 4.037 3.275 7.343 7.344 7.343a7.04 7.04 0 0 0 3.879-1.144l35.669 28.294a6.963 6.963 0 0 0-.445 2.447c0 4.038 3.274 7.344 7.343 7.344 2.385 0 4.514-1.176 5.85-2.956l21.458 6.835a7.246 7.246 0 0 0 3.943 6.23l-4.61 33.19c-3.338.668-5.85 3.624-5.85 7.185 0 3.56 2.385 6.326 5.596 7.089l1.875 18.47c-2.48 1.177-4.196 3.688-4.196 6.613 0 2.003.795 3.815 2.098 5.118L83.326 242.18c-.222 0-.476-.063-.699-.063-4.037 0-7.343 3.274-7.343 7.343 0 1.081.254 2.13.699 3.052L54.81 273.749c-.953-.445-2.003-.731-3.147-.731-4.037 0-7.344 3.275-7.344 7.344 0 2.416 1.177 4.546 2.989 5.881l-9.06 29.756c-3.88.191-6.995 3.37-6.995 7.312s3.275 7.344 7.344 7.344c.413 0 .827-.064 1.24-.127L57.926 362.7c-1.177 1.303-1.908 3.02-1.908 4.896 0 4.037 3.275 7.343 7.344 7.343 3.147 0 5.818-2.003 6.867-4.8l40.088.508 2.352-3.21-4.037-12.367c1.621-1.335 2.67-3.338 2.67-5.595 0-4.038-3.274-7.344-7.343-7.344-1.653 0-3.148.572-4.388 1.494l-20.155-10.459c.032-.318.096-.667.096-1.017 0-2.702-1.463-5.023-3.624-6.295l4.704-24.161c3.53-.54 6.231-3.528 6.231-7.216 0-.922-.19-1.78-.476-2.575l24.478-20.664a7.205 7.205 0 0 0 3.688 1.017c4.038 0 7.344-3.274 7.344-7.343 0-1.367-.413-2.639-1.049-3.72l16.404-19.551c.794.286 1.653.477 2.543.477.35 0 .668-.064.985-.096l12.812 24.829a7.206 7.206 0 0 0-2.003 4.991c0 2.257 1.049 4.26 2.639 5.595l-8.234 22.126h-.127c-4.037 0-7.344 3.275-7.344 7.344 0 4.069 3.243 7.312 7.28 7.312l15.196 43.808c-1.303 1.335-2.13 3.147-2.13 5.15 0 4.037 3.275 7.343 7.344 7.343a6.94 6.94 0 0 0 2.702-.54l17.898 17.167a7.367 7.367 0 0 0-.667 3.02c0 4.037 3.274 7.344 7.343 7.344a7.255 7.255 0 0 0 6.867-4.896h28.135l2.225-3.434-5.182-11.54a7.246 7.246 0 0 0 2.13-5.181c0-4.038-3.274-7.344-7.343-7.344-1.876 0-3.561.731-4.832 1.875l-12.335-5.976c0-.254.095-.509.095-.795 0-3.974-3.179-7.185-7.121-7.312l-13.67-42.281c1.749-1.336 2.893-3.434 2.893-5.786 0-1.939-.763-3.656-1.971-4.96l16.022-30.582c.35.063.668.095 1.018.095 4.037 0 7.343-3.274 7.343-7.343 0-2.766-1.526-5.119-3.783-6.39l5.055-30.392c1.526-.255 2.861-.986 3.91-2.003l42.345 20.219c0 .222-.063.445-.063.667 0 2.194.985 4.133 2.48 5.468l-13.575 36.496h-.127c-4.038 0-7.344 3.274-7.344 7.344 0 2.861 1.653 5.309 4.006 6.517l-5.595 42.949c-3.307.731-5.755 3.656-5.755 7.153 0 4.037 3.275 7.344 7.344 7.344.509 0 .986-.064 1.462-.159l16.659 28.961a7.38 7.38 0 0 0-1.176 3.974c0 4.037 3.274 7.343 7.343 7.343a7.255 7.255 0 0 0 6.867-4.895h42.186l2.13-3.656-8.583-15.006c1.112-1.271 1.812-2.924 1.812-4.768 0-4.038-3.275-7.344-7.344-7.344-2.034 0-3.847.827-5.182 2.13l-18.216-8.71c0-.255.064-.509.064-.763 0-2.989-1.812-5.564-4.387-6.708l2.67-36.591c3.402-.636 6.008-3.593 6.008-7.185 0-1.685-.604-3.211-1.557-4.451l18.534-25.591c.667.191 1.335.318 2.066.318 3.656 0 6.676-2.703 7.217-6.2l5.785-1.112a7.324 7.324 0 0 0 5.437 3.56l2.829 12.558c-2.13 1.271-3.592 3.592-3.592 6.262 0 4.038 3.274 7.344 7.343 7.344.159 0 .286-.032.445-.032l18.884 50.611c-1.621 1.335-2.702 3.37-2.702 5.627 0 4.037 3.274 7.344 7.343 7.344a7.372 7.372 0 0 0 3.021-.668l19.106 20.759c-.286.795-.477 1.622-.477 2.512 0 4.037 3.274 7.343 7.344 7.343a7.27 7.27 0 0 0 6.644-4.291h40.279l2.002-3.847-14.464-20.6a7.177 7.177 0 0 0 1.017-3.656c0-4.038-3.274-7.344-7.344-7.344a7.274 7.274 0 0 0-5.277 2.257l-16.022-6.644c0-.223.063-.413.063-.636 0-3.815-2.925-6.898-6.644-7.248l-12.621-51.692c1.876-1.208 3.116-3.274 3.274-5.627l12.78-3.592c1.336 1.876 3.497 3.084 5.945 3.084 2.003 0 3.847-.827 5.182-2.13l13.352 6.358c0 .191-.063.413-.063.604 0 2.162.953 4.101 2.447 5.436l-8.551 20.41s-.255-.032-.414-.032c-4.037 0-7.343 3.274-7.343 7.344a7.326 7.326 0 0 0 7.343 7.343c.859 0 1.654-.159 2.385-.445l22.73 28.357a7.178 7.178 0 0 0-1.113 3.847c0 4.037 3.275 7.344 7.344 7.344a7.327 7.327 0 0 0 7.344-7.344c0-1.844-.7-3.497-1.812-4.769l9.473-16.626c.382.095.763.127 1.145.159l4.705 19.583a7.312 7.312 0 0 0-3.338 6.136c0 4.037 3.274 7.343 7.343 7.343 2.512 0 4.737-1.271 6.072-3.211l30.456 7.98c.826 3.115 3.656 5.436 7.057 5.436 4.038 0 7.344-3.274 7.344-7.344 0-1.462-.445-2.797-1.176-3.942l7.693-12.144a7.07 7.07 0 0 0 1.621.191c4.038 0 7.344-3.274 7.344-7.344a7.326 7.326 0 0 0-7.344-7.343l-.063-.127Zm-83.896 8.551h-.095l-14.179-58.367c2.416-1.208 4.101-3.656 4.101-6.549a7.181 7.181 0 0 0-1.081-3.752l43.14-42.599c.318.191.604.381.954.509l-9.601 47.813a7.31 7.31 0 0 0-7.089 7.312 7.269 7.269 0 0 0 4.292 6.644l-4.101 20.473c-3.879.191-6.962 3.37-6.962 7.28a7.25 7.25 0 0 0 1.525 4.451l-9.6 16.881c-.414-.064-.859-.128-1.304-.128v.032ZM378.28 272.51l-12.748 3.592c-1.335-1.876-3.497-3.116-5.976-3.116-2.48 0-4.674 1.24-6.009 3.148l-29.025-11.699c.064-.382.127-.763.127-1.145 0-1.398-.413-2.67-1.08-3.783l26.736-25.909a7.168 7.168 0 0 0 4.005 1.208 7.372 7.372 0 0 0 2.893-.604l23.048 33.857a7.182 7.182 0 0 0-1.907 4.482l-.064-.031Zm-24.065 80.017 14.846-3.656a7.428 7.428 0 0 0 4.737 3.624l-.159 23.366a8.468 8.468 0 0 0-1.462.636l-18.725-20.378a7.123 7.123 0 0 0 .795-3.274c0-.096 0-.223-.032-.318Zm-24.924-59.544a7.177 7.177 0 0 0 1.017-3.656c0-3.688-2.734-6.708-6.263-7.217l-2.861-12.652c.827-.541 1.558-1.208 2.098-2.003l29.025 11.699c-.063.381-.127.763-.127 1.144 0 3.783 2.893 6.867 6.581 7.249l12.462 51.087-41.964-45.651h.032Zm-38.371 78.173-24.924 13.734c-1.336-1.304-3.116-2.099-5.119-2.099-.763 0-1.526.159-2.225.382l-16.404-28.516a6.758 6.758 0 0 0 1.24-2.194l16.499 2.543c.286 3.815 3.402 6.804 7.28 6.804 2.035 0 3.847-.827 5.182-2.13l18.216 8.71c0 .255-.063.509-.063.763 0 .7.127 1.367.318 2.003Zm-40.947-73.595 14.338 5.722c0 .223-.064.445-.064.699 0 1.654.572 3.179 1.494 4.419l-25.718 34.112 5.468-41.964c1.844-.382 3.433-1.494 4.482-2.988Zm10.491 54.235-16.595-2.575a7.203 7.203 0 0 0-1.78-4.038l25.91-34.397-2.671 36.654c-2.225.604-4.037 2.226-4.864 4.324v.032Zm11.095-55.125h-.064l-6.58-45.652c2.829-1.017 4.896-3.688 4.896-6.898 0-1.367-.414-2.639-1.05-3.752l13.162-12.112a7.06 7.06 0 0 0 3.274 1.303l9.156 30.996c-2.225 1.272-3.751 3.624-3.751 6.358 0 1.558.477 2.989 1.303 4.165l-18.661 25.782c-.54-.127-1.113-.222-1.685-.222v.032Zm-112.73-32.173c-.349 0-.667.064-.985.096l-12.812-24.829a2.83 2.83 0 0 0 .477-.604l47.686 21.427a7.336 7.336 0 0 0-.159 1.431v.063l-27.658 6.517c-1.208-2.416-3.656-4.101-6.549-4.101Zm-44.379-6.93s-.255.032-.414.032l-10.713-37.227a7.267 7.267 0 0 0 3.783-6.39 7.294 7.294 0 0 0-5.595-7.089l-1.876-18.471s.064-.031.096-.063l34.174 41.9a7.171 7.171 0 0 0-1.557 4.482c0 1.367.381 2.607 1.049 3.72l-16.404 19.583c-.795-.286-1.653-.477-2.543-.477ZM28.964 89.332l15.45 1.43c.605 3.434 3.593 6.072 7.217 6.072.477 0 .954-.063 1.399-.127l9.919 19.679-33.984-26.959v-.095Zm45.97 31.282 10.65-9.219a7.272 7.272 0 0 0 4.323 1.43c.477 0 .954-.063 1.43-.159l7.344 16.436a7.6 7.6 0 0 0-1.43 1.431l-21.49-6.867c-.032-1.113-.35-2.162-.827-3.084v.032Zm286.338 20.632c.89.381 1.844.572 2.861.572a7.17 7.17 0 0 0 3.37-.858l18.725 17.517a7.405 7.405 0 0 0-.604 2.924 7.27 7.27 0 0 0 4.864 6.867l-3.243 27.34a7.311 7.311 0 0 0-5.468 3.497l-46.35-15.164c0-.159.063-.318.063-.477 0-1.621-.54-3.116-1.462-4.324l27.244-37.926v.032ZM321.82 179.84l-46.287-13.257s.032-.254.032-.381c0-2.671-1.431-4.96-3.561-6.263l16.341-49.466c.286.031.54.095.826.095.636 0 1.272-.127 1.876-.286l32.871 67.205a7 7 0 0 0-2.098 2.321v.032Zm-96.326-45.779c.35-.858.541-1.812.541-2.797 0-.382-.064-.795-.127-1.145l57.032-23.08a7.235 7.235 0 0 0 2.321 2.385l-16.372 49.498c-.223 0-.445-.064-.668-.064-1.876 0-3.592.731-4.896 1.907l-37.894-26.704h.063Zm-.763-6.962c-1.049-1.494-2.638-2.607-4.482-2.988l-.413-25.02c2.161-.413 3.942-1.811 4.991-3.687l56.81 8.679-56.906 23.016Zm-8.17-28.103.413 25.21c-3.21.795-5.595 3.656-5.595 7.089 0 .382.064.795.127 1.145l-20.346 8.234a7.286 7.286 0 0 0-5.817-3.402l-11.636-39.007c1.526-.858 2.703-2.225 3.275-3.91h34.556c.795 2.289 2.702 4.005 5.055 4.641h-.032Zm-75.153 128.625.318-57.414c.763-.159 1.431-.477 2.098-.826l57.351 45.524c-.446.954-.732 2.035-.732 3.147v.127l-54.171 13.289a7.36 7.36 0 0 0-4.864-3.847Zm61.769-15.259-56.969-45.207a7.228 7.228 0 0 0 1.24-4.069c0-.381-.063-.795-.127-1.144l31.823-12.876c1.335 1.717 3.401 2.862 5.785 2.862.446 0 .891-.064 1.304-.128l17.898 59.926a5.13 5.13 0 0 0-.954.667v-.031Zm-33.126-113.08c.159 0 .318-.031.477-.063l11.54 38.625c-2.638 1.113-4.482 3.72-4.482 6.74 0 .509.063 1.017.159 1.526l-31.632 12.78c-1.335-1.908-3.529-3.147-6.008-3.147-2.099 0-4.006.89-5.341 2.32l-25.147-19.964c.445-.954.732-2.035.732-3.148a7.198 7.198 0 0 0-1.94-4.927l14.56-20.982c.859.35 1.749.54 2.734.54 3.784 0 6.835-2.861 7.249-6.517l30.9-7.184c1.304 2.034 3.561 3.401 6.168 3.401h.031Zm-49.72 7.916-14.56 20.982a7.106 7.106 0 0 0-2.734-.54 7.26 7.26 0 0 0-1.431.159l-7.343-16.436a7.243 7.243 0 0 0 2.67-4.038l22.126-2.003c.318.7.731 1.304 1.24 1.876h.032Zm-12.716 33.476 25.527 20.25a6.816 6.816 0 0 0-.349 2.13c0 3.466 2.416 6.358 5.659 7.121l-.318 57.414c-.573.128-1.113.35-1.654.604l-34.174-41.9a7.171 7.171 0 0 0 1.557-4.482c0-2.83-1.621-5.246-3.974-6.485l4.61-33.19c1.176-.222 2.194-.763 3.084-1.494l.032.032Zm86.947 116.958-47.686-21.427c.095-.477.159-.954.159-1.431v-.127l54.171-13.289a7.423 7.423 0 0 0 2.989 3.116l-5.055 30.392c-1.844.318-3.465 1.367-4.546 2.797l-.032-.031Zm17.517-45.461c-1.208-.89-2.702-1.462-4.356-1.462-.159 0-.318.031-.476.063l-17.994-60.275c1.812-1.335 3.02-3.465 3.02-5.881 0-.286-.063-.541-.095-.795l20.505-8.297c1.335 1.907 3.528 3.147 6.008 3.147 1.876 0 3.593-.731 4.896-1.908l37.894 26.705a7.443 7.443 0 0 0-.54 2.797c0 1.24.318 2.385.858 3.402l-49.689 42.567-.031-.063Zm62.532-42.441 46.224 13.225c0 .191-.064.35-.064.541 0 1.335.382 2.543.986 3.624l-31.537 29.057a7.372 7.372 0 0 0-3.974-1.177c-.635 0-1.239.096-1.844.255l-12.589-42.663a7.56 7.56 0 0 0 2.83-2.83l-.032-.032Zm23.334 89.841s-.286.032-.445.032l-8.965-30.392a7.275 7.275 0 0 0 5.023-6.931c0-1.398-.413-2.67-1.081-3.783l31.473-28.993a7.195 7.195 0 0 0 4.165 1.304c.953 0 1.844-.191 2.67-.509l18.629 31.632a7.212 7.212 0 0 0-2.479 5.468c0 1.398.413 2.702 1.081 3.815l-26.736 25.909a7.173 7.173 0 0 0-4.006-1.208c-3.656 0-6.676 2.702-7.216 6.199l-5.786 1.113c-1.272-2.162-3.593-3.656-6.295-3.656h-.032Zm61.102-37.672c-1.303-1.113-2.957-1.844-4.8-1.844-.7 0-1.336.127-1.971.318l-18.789-31.918c.382-.413.7-.858.986-1.367l46.287 15.132c0 .223-.064.446-.064.668 0 1.017.223 2.003.604 2.893l-22.189 16.118h-.064Zm31.377-25.878 3.243-27.34a7.095 7.095 0 0 0 2.575-.763l23.589 22.063c-.382.89-.636 1.876-.636 2.925a7.308 7.308 0 0 0 4.546 6.771l-5.532 32.935c-1.017.064-2.002.318-2.861.763l-21.617-26.068a7.27 7.27 0 0 0-3.338-11.318l.031.032Zm28.707 51.183c3.815-.254 6.867-3.401 6.867-7.28a7.308 7.308 0 0 0-4.546-6.771l5.532-32.935c.922-.064 1.78-.255 2.575-.636l28.548 29.661a7.165 7.165 0 0 0-.827 3.306c0 1.43.413 2.766 1.145 3.878l-43.077 42.536a7.638 7.638 0 0 0-1.24-.667l5.023-31.124v.032Zm71.625 61.642c0 .191.031.35.063.541l-8.933 2.734c-1.272-2.194-3.624-3.688-6.326-3.688-1.399 0-2.671.413-3.783 1.081l-12.971-11.731a7.698 7.698 0 0 0 .827-2.829l35.414-4.038a7.328 7.328 0 0 0 3.243 4.546l-1.24 6.136c-3.56.509-6.294 3.529-6.294 7.217v.031Zm4.26-21.204-35.892 4.069a7.264 7.264 0 0 0-3.847-4.037l9.601-47.845c.541 0 1.081-.096 1.59-.255l30.137 44.953c-.763.89-1.303 1.907-1.558 3.083l-.031.032Zm-46.637 34.397 4.069-20.346a7.398 7.398 0 0 0 4.196-1.43l12.748 11.508a7.385 7.385 0 0 0-1.176 3.974c0 2.321 1.113 4.387 2.798 5.722l-15.737 33.158c-.254-.064-.54-.064-.826-.095l-4.737-19.711c1.907-1.335 3.179-3.528 3.179-6.04 0-3.052-1.844-5.627-4.482-6.74h-.032Zm9.823 34.017 15.736-33.158a6.61 6.61 0 0 0 1.59.191c.35 0 .668-.064.985-.096l16.309 43.14a7.611 7.611 0 0 0-2.257 2.766l-29.661-7.757a7.452 7.452 0 0 0-2.734-5.118l.032.032Zm39.039 8.583a6.83 6.83 0 0 0-1.431.159l-16.245-42.917c.191-.128.35-.287.509-.414l26.259 23.748a7.095 7.095 0 0 0-.954 3.56c0 1.717.604 3.243 1.59 4.515l-7.471 11.762c-.731-.222-1.462-.381-2.289-.381l.032-.032Zm10.364-22.699-25.496-23.048c.445-.954.731-2.003.731-3.147 0-.191-.032-.35-.064-.541l8.933-2.734c1.272 2.194 3.625 3.688 6.327 3.688h.095l9.474 25.782ZM358.57 139.307l-27.117 37.735a7.207 7.207 0 0 0-3.402-.858c-.413 0-.795.063-1.176.127l-32.999-67.492c.35-.286.636-.604.922-.953l61.96 26.227s-.032.286-.032.445c0 1.844.7 3.529 1.844 4.832v-.063ZM82.532 105.132s-.032.222-.032.349c0 1.24.35 2.385.89 3.434l-10.618 9.187c-1.24-.922-2.734-1.494-4.387-1.494-.572 0-1.113.064-1.653.191l-10.81-21.49c.287-.223.573-.446.86-.7l25.782 10.523h-.032Zm-37.768-18.47c-.095.254-.159.508-.254.794l-15.323-1.43c-.477-3.593-3.529-6.359-7.248-6.359-.477 0-.954.064-1.43.16l-7.662-12.908a7.703 7.703 0 0 0 1.271-1.907l10.714 1.653.254.381 19.647 19.647.031-.032ZM11.607 45.778 8.49 54.362 5.694 37.418l3.274 1.398c-.063.414-.127.827-.127 1.272 0 2.32 1.08 4.355 2.766 5.69Zm11.635 17.357-8.456-1.303a7.358 7.358 0 0 0-3.37-5.945l3.147-8.679c.509.127 1.05.19 1.622.19h.031l7.026 15.706v.031ZM9.636 10.046l2.511-2.512.731 26.037a7.778 7.778 0 0 0-2.638 2.225l-4.896-2.098 4.292-23.684v.032ZM98.999 221.23c.286 0 .54.096.827.096.127 0 .254-.032.413-.032l10.714 37.227a7.265 7.265 0 0 0-3.783 6.39c0 .922.19 1.78.476 2.575L83.168 288.15a8.95 8.95 0 0 0-1.59-.7l2.035-30.773c3.56-.509 6.326-3.529 6.326-7.217a7.25 7.25 0 0 0-2.194-5.213L99 221.263v-.032Zm-2.352 128.943L69.084 363.08a7.248 7.248 0 0 0-2.384-2.003l5.309-21.649h.127c1.94 0 3.688-.763 4.991-1.971l19.679 10.205c-.127.572-.223 1.144-.223 1.748 0 .255.064.509.064.795v-.032Zm-51.628-23.525c9.632 2.575 15.831 4.197 19.805 5.246v.19c0 2.862 1.653 5.309 4.038 6.517l-5.31 21.618h-.254c-.381 0-.763.064-1.112.127L44.065 328.08c.382-.414.7-.89.954-1.399v-.032Zm20.632 2.098c-5.277-1.398-12.812-3.401-19.774-5.245v-.254c0-2.417-1.176-4.547-2.988-5.882l9.06-29.756a7.175 7.175 0 0 0 5.277-2.638l15.133 7.693c-.127.572-.255 1.144-.255 1.78 0 2.702 1.463 5.023 3.624 6.295L71.024 324.9a7.248 7.248 0 0 0-5.405 3.878l.032-.032Zm14.687-72.387-2.034 30.837a7.284 7.284 0 0 0-4.451 2.543l-15.132-7.693c.127-.572.254-1.145.254-1.78 0-1.145-.286-2.194-.731-3.148l21.14-21.172c.318.159.636.286.986.381l-.032.032Zm26.545 109.264-34.62-.445 25.433-11.921a7.319 7.319 0 0 0 6.199 3.433h.095l2.925 8.933h-.032Zm51.851-86.502h.127c4.038 0 7.344-3.274 7.344-7.344v-.063l27.658-6.517c.318.636.699 1.24 1.208 1.748l-16.023 30.551a5.462 5.462 0 0 0-1.017-.095c-3.656 0-6.644 2.67-7.217 6.167l-17.961 1.145a7.187 7.187 0 0 0-2.321-3.529l8.234-22.126-.032.063Zm54.489 94.927-17.008 9.283a7.261 7.261 0 0 0-2.766-.541c-1.176 0-2.289.318-3.274.795l-17.644-16.912c.445-.827.763-1.717.858-2.671l15.546-1.494c.986 2.925 3.688 5.023 6.93 5.023a7.313 7.313 0 0 0 5.151-2.13l12.08 5.818c-.064.381-.127.763-.127 1.176 0 .572.063 1.113.191 1.621l.063.032Zm-60.18-66.029 17.962-1.145c.604 2.003 2.003 3.656 3.879 4.546l-9.569 44.158-14.942-43.045a7.184 7.184 0 0 0 2.639-4.514h.031Zm35.638 51.246-15.609 1.495a7.317 7.317 0 0 0-4.578-4.547l9.442-43.585 13.511 41.742a7.259 7.259 0 0 0-2.798 4.864l.032.031Zm11.667 28.421a6.754 6.754 0 0 0-1.24-2.193l15.546-8.52c1.335 1.685 3.37 2.766 5.69 2.766.255 0 .509-.064.763-.064l3.593 8.011h-24.352Zm14.624-168.872c0-.254.063-.508.063-.763a7.2 7.2 0 0 0-.858-3.401l49.689-42.568c1.208.89 2.702 1.462 4.355 1.462.159 0 .286-.032.445-.032l12.78 43.299a7.248 7.248 0 0 0-2.543 5.532c0 1.24.349 2.416.89 3.465l-13.289 12.24a7.274 7.274 0 0 0-4.037-1.209c-2.066 0-3.91.859-5.246 2.226l-42.281-20.187.032-.064Zm46.859 33.539 6.517 45.08a7.362 7.362 0 0 0-3.02 2.734l-14.147-5.659c.064-.382.127-.731.127-1.145 0-2.257-1.049-4.26-2.638-5.595l13.193-35.446-.032.031Zm5.945 135.333v-.032l24.733-13.638c1.335 1.494 3.275 2.48 5.436 2.48.445 0 .89-.064 1.304-.127l6.485 11.317h-37.958Zm61.102-90.349 40.469 44.03a7.173 7.173 0 0 0-1.208 4.006c0 .127 0 .254.032.381l-14.846 3.656c-1.24-2.289-3.624-3.878-6.422-3.878h-.064l-17.993-48.195h.032Zm54.076 83.61a6.645 6.645 0 0 0-.604-1.558l17.866-15.419a7.405 7.405 0 0 0 3.815 1.081c.922 0 1.78-.19 2.575-.477l11.508 16.373h-35.16Zm13.797-23.843c0 .222-.064.413-.064.635 0 1.463.445 2.798 1.176 3.942L380.22 376.91a7.609 7.609 0 0 0-3.338-1.367l.158-23.048a7.35 7.35 0 0 0 3.688-2.066l16.023 6.644v.032Zm-3.942-83.387c0-.255.063-.509.063-.763 0-4.038-3.274-7.344-7.343-7.344-.954 0-1.844.191-2.703.509l-23.111-33.953c1.112-1.303 1.812-2.956 1.812-4.8a7.372 7.372 0 0 0-.604-2.893l22.19-16.118c1.303 1.113 2.956 1.844 4.8 1.844 1.176 0 2.289-.318 3.274-.827l21.618 26.069a7.244 7.244 0 0 0-1.526 4.45c0 3.084 1.907 5.691 4.578 6.772l-5.023 31.091c-1.907.127-3.592.922-4.832 2.225l-13.257-6.294.064.032Zm18.184 18.661s.222.032.35.032h.063l13.67 56.301-21.363-26.641a7.172 7.172 0 0 0 1.113-3.846c0-2.162-.954-4.07-2.417-5.405l8.584-20.441Z"/></svg>