<svg xmlns="http://www.w3.org/2000/svg" fill="none" viewBox="0 0 842 530">
  <path stroke="#C6E30F" stroke-width="10" d="M105 64C105 64 160 269.545 214 299C268 328.455 248 255 329 270C410 285 389 504 598 508"/>
  <path fill="#D9D9D9" d="M81.212 29.653H106.212V71.653H81.212z" transform="rotate(-15 81.212 29.653)"/>
  <path fill="#D9D9D9" d="M81.831 8.781H94.831V28.781H81.831z" transform="rotate(-15 81.83 8.781)"/>
  <path fill="#D9D9D9" d="M75 6.47H100V10.47H75z" transform="rotate(-15 75 6.47)"/>
  <path fill="#D9D9D9" d="M640 495H665V537H640z" transform="rotate(90 640 495)"/>
  <path fill="#D9D9D9" d="M660 501H673V521H660z" transform="rotate(90 660 501)"/>
  <path fill="#D9D9D9" d="M664 495H689V499H664z" transform="rotate(90 664 495)"/>
  <ellipse cx="315" cy="312.5" fill="#D9D9D9" rx="42" ry="41.5"/>
  <path fill="#B0D51D" d="M143 164L132 170L91 70.3597L116.196 62.6315L143 164Z"/>
  <g filter="url(#a)">
    <path stroke="#000" d="M3.005 513.5 838.004 521.587"/>
  </g>
  <defs>
    <filter id="a" width="841.009" height="16.087" x="0" y="513" color-interpolation-filters="sRGB" filterUnits="userSpaceOnUse">
      <feFlood flood-opacity="0" result="BackgroundImageFix"/>
      <feColorMatrix in="SourceAlpha" result="hardAlpha" values="0 0 0 0 0 0 0 0 0 0 0 0 0 0 0 0 0 0 127 0"/>
      <feOffset dy="4"/>
      <feGaussianBlur stdDeviation="1.5"/>
      <feComposite in2="hardAlpha" operator="out"/>
      <feColorMatrix values="0 0 0 0 0 0 0 0 0 0 0 0 0 0 0 0 0 0 0.9 0"/>
      <feBlend in2="BackgroundImageFix" mode="darken" result="effect1_dropShadow_0_1"/>
      <feBlend in="SourceGraphic" in2="effect1_dropShadow_0_1" result="shape"/>
    </filter>
  </defs>
</svg>