<svg xmlns="http://www.w3.org/2000/svg" xml:space="preserve" id="Icons" version="1.1" viewBox="0 0 32 32">
  <style>
    .st0{stroke-linecap:round}.st0,.st1{fill:none;stroke:#000;stroke-width:2;stroke-linejoin:round;stroke-miterlimit:10}
  </style>
  <path d="M28.8 20.2c-1.1.2-2 0-2.4-.7-.4-.7-.1-1.7.6-2.5-.9-.9-1.9-1.5-3.1-1.8-.3 1-1 1.8-1.8 1.8s-1.5-.7-1.8-1.8c-1.2.3-2.3.9-3.1 1.8.7.8 1 1.8.6 2.5s-1.4.9-2.4.7c-.3.6-.4 1.2-.4 1.8s.1 1.2.2 1.8c1.1-.2 2 0 2.4.7.4.7.1 1.7-.6 2.5.9.9 1.9 1.5 3.1 1.8.3-1 1-1.8 1.8-1.8s1.5.7 1.8 1.8c1.2-.3 2.3-.9 3.1-1.8-.7-.8-1-1.8-.6-2.5s1.4-.9 2.4-.7c.2-.6.2-1.2.2-1.8s.1-1.2 0-1.8z" class="st1"/>
  <circle cx="22" cy="22" r="2" class="st1"/>
  <path d="M5 12h16" class="st0"/>
  <path d="M10.5 8.1 9.3 3.9h0c2.3-1.2 5.1-1.2 7.4 0h0l-1.2 4.2" class="st0"/>
  <path d="M16.5 4.9c2 1.2 3.3 3.4 3.3 5.9V12" class="st0"/>
  <path d="M6.2 12v-1.2c0-2.5 1.3-4.7 3.3-5.9" class="st0"/>
  <path d="M8 12v2c0 2.1.9 4 2.5 5v0c0 2.1-1.3 3.9-3.2 4.4-2.2.6-3.8 2.6-4.3 5 0 .3.2.6.5.6H13" class="st0"/>
</svg>