<svg xmlns="http://www.w3.org/2000/svg" display="block" viewBox="0 0 189 61">
  <path fill="#fafbfb" d="M0 0 C62.37 0 124.74 0 189 0 C189 20.13 189 40.26 189 61 C126.63 61 64.26 61 0 61 C0 40.87 0 20.74 0 0 Z"/>
  <path fill="#183c65" d="M0 0 C3.3 0 6.6 0 10 0 C10.33 2.64 10.66 5.28 11 8 C11.36609375 7.4225 11.7321875 6.845 12.109375 6.25 C14.79055851 2.57294833 16.50367378 0.25342511 21.13671875 -0.53125 C24.1267304 -0.5029422 27.031408 -0.35096654 30 0 C29.59007813 0.47050781 29.18015625 0.94101562 28.7578125 1.42578125 C28.21898438 2.04839844 27.68015625 2.67101562 27.125 3.3125 C26.59132813 3.92738281 26.05765625 4.54226562 25.5078125 5.17578125 C23.8359553 7.13498212 23.8359553 7.13498212 22 10 C22.5775 10.62648438 23.155 11.25296875 23.75 11.8984375 C24.4925 12.71570312 25.235 13.53296875 26 14.375 C27.11375 15.59316406 27.11375 15.59316406 28.25 16.8359375 C30 19 30 19 30 21 C25.89926975 21.47775498 22.0819057 21.70287917 18 21 C15.78222793 19.12245432 14.54170091 17.34892247 13.0859375 14.84765625 C12.13064552 12.83844726 12.13064552 12.83844726 10 12 C10 15.3 10 18.6 10 22 C11.32 22.66 12.64 23.32 14 24 C18.90793777 29.66832249 22.27973611 36.93264248 25.84057617 43.50244141 C26.20642822 44.16937012 26.57228027 44.83629883 26.94921875 45.5234375 C27.27237061 46.12075684 27.59552246 46.71807617 27.9284668 47.33349609 C29.09631553 49.1497949 30.4265556 50.52876368 32 52 C36.02063866 50.69600908 37.54184531 49.35202912 40 46 C40.99 46 41.98 46 43 46 C42.4971962 50.35763296 39.94698863 52.91905734 37 56 C33.07170029 58.27427878 29.47960615 58.63994374 25 58 C20.88354635 53.77246745 18.37928852 49.23807906 15.875 43.9375 C15.20760195 42.54987895 14.53837002 41.16313824 13.8671875 39.77734375 C13.55362305 39.12749512 13.24005859 38.47764648 12.91699219 37.80810547 C12.1055409 36.20810327 11.18848158 34.6626322 10.2578125 33.12890625 C9 31 9 31 9 29 C5.34683329 30.24976756 4.21934164 30.67098753 2 34 C0.68 33.67 -0.64 33.34 -2 33 C2 25.42857143 2 25.42857143 6 23 C4.02 22.67 2.04 22.34 0 22 C0 14.74 0 7.48 0 0 Z" transform="translate(61 2)"/>
  <path fill="#0b345e" d="M0 0 C10.00557258 -0.87768181 10.00557258 -0.87768181 15 0 C18.10201592 2.91209657 19.53587087 6.04814703 21 10 C21.33 10.66 21.66 11.32 22 12 C22.33 8.04 22.66 4.08 23 0 C25.64 0 28.28 0 31 0 C31 6.93 31 13.86 31 21 C21.75129534 22.05699482 21.75129534 22.05699482 17 21 C13.66082817 17.41445286 11.79371976 13.53150255 10 9 C9.67 13.29 9.34 17.58 9 22 C6.03 22 3.06 22 0 22 C0 14.74 0 7.48 0 0 Z" transform="translate(24 2)"/>
  <path fill="#0c365f" d="M0 0 C8.25 0 16.5 0 25 0 C25 1.65 25 3.3 25 5 C22.36 5 19.72 5 17 5 C17 10.61 17 16.22 17 22 C13.7 22 10.4 22 7 22 C7 16.39 7 10.78 7 5 C4.69 5 2.38 5 0 5 C0 3.35 0 1.7 0 0 Z" transform="translate(93 2)"/>
  <path fill="#9d9d9d" d="M0 0 C0.99 0 1.98 0 3 0 C3.33 2.31 3.66 4.62 4 7 C5.0725 6.7525 6.145 6.505 7.25 6.25 C11 6 11 6 13.4375 7.375 C15.72585268 11.21943251 15.66964377 14.63174239 15 19 C13.8410416 21.41869578 12.87677904 23.12322096 11 25 C9.00045254 25.04254356 6.99958364 25.04080783 5 25 C4.34 25 3.68 25 3 25 C2.01 25 1.02 25 0 25 C0 16.75 0 8.5 0 0 Z" transform="translate(108 26)"/>
  <path fill="#09325c" d="M0 0 C1.07765625 0.03609375 2.1553125 0.0721875 3.265625 0.109375 C4.49539062 0.17898437 4.49539062 0.17898437 5.75 0.25 C5.34007813 0.72050781 4.93015625 1.19101562 4.5078125 1.67578125 C3.96898438 2.29839844 3.43015625 2.92101562 2.875 3.5625 C2.34132813 4.17738281 1.80765625 4.79226562 1.2578125 5.42578125 C-0.4140447 7.38498212 -0.4140447 7.38498212 -2.25 10.25 C-1.6725 10.87648438 -1.095 11.50296875 -0.5 12.1484375 C0.2425 12.96570312 0.985 13.78296875 1.75 14.625 C2.86375 15.84316406 2.86375 15.84316406 4 17.0859375 C5.75 19.25 5.75 19.25 5.75 21.25 C1.59168171 21.87374774 -2.11511349 22.10723257 -6.25 21.25 C-9.62049589 18.33911719 -11.94708636 15.04303423 -14.25 11.25 C-8.00490196 -0.34803922 -8.00490196 -0.34803922 0 0 Z" transform="translate(85.25 1.75)"/>
  <path fill="#012c58" d="M0 0 C2.97 0 5.94 0 9 0 C9 6.93 9 13.86 9 21 C6.03 21 3.06 21 0 21 C0 14.07 0 7.14 0 0 Z" transform="translate(61 2)"/>
  <path fill="#aaa" d="M0 0 C2.875 2.1875 2.875 2.1875 5 5 C5 6.65 5 8.3 5 10 C1.04 10 -2.92 10 -7 10 C-6.34 11.65 -5.68 13.3 -5 15 C-2.03 15.33 0.94 15.66 4 16 C4 16.99 4 17.98 4 19 C-4.92674617 19.76660988 -4.92674617 19.76660988 -8.625 17.125 C-10.5762288 12.69038909 -10.78806244 8.76858194 -10 4 C-7.4030755 -0.19503188 -4.78492485 -0.87886375 0 0 Z" transform="translate(160 32)"/>
  <path fill="#a6a6a6" d="M0 0 C3.375 1.125 3.375 1.125 5.3125 3.4375 C6.375 6.125 6.375 6.125 6.375 10.125 C2.415 10.125 -1.545 10.125 -5.625 10.125 C-4.965 11.775 -4.305 13.425 -3.625 15.125 C0.85633574 15.84756829 0.85633574 15.84756829 5.375 16.125 C5.045 17.115 4.715 18.105 4.375 19.125 C-2.94526144 19.49101307 -2.94526144 19.49101307 -6.0625 17.8125 C-8.90840229 14.73892552 -9.03256677 11.20762496 -8.96484375 7.13671875 C-8.625 5.125 -8.625 5.125 -6.5625 2.0625 C-3.625 0.125 -3.625 0.125 0 0 Z" transform="translate(52.625 31.875)"/>
  <path fill="#979797" d="M0 0 C4.29 0 8.58 0 13 0 C13 0.66 13 1.32 13 2 C9.7 2 6.4 2 3 2 C3 4.64 3 7.28 3 10 C5.97 10 8.94 10 12 10 C12 10.99 12 11.98 12 13 C9.03 13 6.06 13 3 13 C3 16.63 3 20.26 3 24 C2.01 24 1.02 24 0 24 C0 16.08 0 8.16 0 0 Z" transform="translate(3 27)"/>
  <path fill="#9f9f9f" d="M0 0 C1.21236328 0.04060547 1.21236328 0.04060547 2.44921875 0.08203125 C3.06410156 0.11683594 3.67898437 0.15164062 4.3125 0.1875 C4.3125 1.1775 4.3125 2.1675 4.3125 3.1875 C1.6725 3.5175 -0.9675 3.8475 -3.6875 4.1875 C-4.0175 5.1775 -4.3475 6.1675 -4.6875 7.1875 C-4.04941406 7.39246094 -3.41132813 7.59742188 -2.75390625 7.80859375 C-1.92761719 8.07800781 -1.10132813 8.34742188 -0.25 8.625 C0.57371094 8.89183594 1.39742187 9.15867187 2.24609375 9.43359375 C4.3125 10.1875 4.3125 10.1875 5.3125 11.1875 C5.625 13.5625 5.625 13.5625 5.3125 16.1875 C3.875 18 3.875 18 1.3125 19.1875 C-1.70521016 19.4264237 -4.66756841 19.36172682 -7.6875 19.1875 C-7.6875 18.1975 -7.6875 17.2075 -7.6875 16.1875 C-4.3875 16.1875 -1.0875 16.1875 2.3125 16.1875 C1.9825 14.8675 1.6525 13.5475 1.3125 12.1875 C-0.50264705 11.09191185 -0.50264705 11.09191185 -2.6875 10.5 C-6.63763123 9.23736877 -6.63763123 9.23736877 -7.6875 8.1875 C-8.14826844 3.81019984 -8.14826844 3.81019984 -6.46484375 1.53515625 C-4.16667456 -0.2074116 -2.84893333 -0.12386667 0 0 Z" transform="translate(179.688 31.813)"/>
  <path fill="#f9f9f9" d="M0 0 C2.5 0.25 2.5 0.25 4.5 2.25 C5.06872038 9.3021327 5.06872038 9.3021327 3 12.75 C2.505 13.245 2.01 13.74 1.5 14.25 C-1.36724686 13.67655063 -2.3614515 13.3885485 -4.5 11.25 C-4.765625 9.15625 -4.765625 9.15625 -4.75 6.75 C-4.75515625 5.9559375 -4.7603125 5.161875 -4.765625 4.34375 C-4.35119662 1.07707925 -3.20036774 0.32003677 0 0 Z" transform="translate(115.5 34.75)"/>
  <path fill="#08315c" d="M0 0 C-0.5028038 4.35763296 -3.05301137 6.91905734 -6 10 C-9.9572777 12.29105551 -13.49097273 12.1768246 -18 12 C-18.66 10.68 -19.32 9.36 -20 8 C-18.4375 6.4375 -18.4375 6.4375 -16 5 C-14.865625 5.20625 -13.73125 5.4125 -12.5625 5.625 C-11.386875 5.74875 -10.21125 5.8725 -9 6 C-6.08209475 3.7495803 -6.08209475 3.7495803 -4 1 C-3 0 -3 0 0 0 Z" transform="translate(104 48)"/>
  <path fill="#9e9e9e" d="M0 0 C2.31 0 4.62 0 7 0 C7 7.26 7 14.52 7 22 C8.65 22 10.3 22 12 22 C12 22.66 12 23.32 12 24 C9.36 24 6.72 24 4 24 C4 16.74 4 9.48 4 2 C2.68 2 1.36 2 0 2 C0 1.34 0 0.68 0 0 Z" transform="translate(130 27)"/>
  <path fill="#a5a5a5" d="M0 0 C0.33 1.32 0.66 2.64 1 4 C3.64 4 6.28 4 9 4 C9 4.33 9 4.66 9 5 C6.03 5 3.06 5 0 5 C0.83752779 8.09748698 0.83752779 8.09748698 3 11 C5.99392117 11.84403097 8.89910366 11.98699834 12 12 C12 12.99 12 13.98 12 15 C3.01297031 15.7717869 3.01297031 15.7717869 -0.625 13 C-2.48117976 8.95015326 -2.43615842 6.43427726 -2 2 C-1.34 1.34 -0.68 0.68 0 0 Z" transform="translate(152 36)"/>
  <path fill="#949494" d="M0 0 C2.31 0 4.62 0 7 0 C7 7.26 7 14.52 7 22 C8.65 22 10.3 22 12 22 C12 22.66 12 23.32 12 24 C9.69 24 7.38 24 5 24 C5 16.74 5 9.48 5 2 C3.35 2 1.7 2 0 2 C0 1.34 0 0.68 0 0 Z" transform="translate(24 27)"/>
  <path fill="#9f9f9f" d="M0 0 C0.99 0 1.98 0 3 0 C3.33 2.31 3.66 4.62 4 7 C5.0725 6.7525 6.145 6.505 7.25 6.25 C11 6 11 6 13.4375 7.375 C15.71129289 11.19497205 15.33381714 14.66037724 15 19 C14.01 18.67 13.02 18.34 12 18 C11.855625 16.865625 11.71125 15.73125 11.5625 14.5625 C11.38828522 11.19222799 11.38828522 11.19222799 10 10 C9.030625 10 8.06125 10 7.0625 10 C4 10 4 10 2 9 C2 6.36 2 3.72 2 1 C1.34 0.67 0.68 0.34 0 0 Z" transform="translate(108 26)"/>
  <path fill="#959595" d="M0 0 C2.64 0 5.28 0 8 0 C8 5.94 8 11.88 8 18 C7.34 18 6.68 18 6 18 C6 12.72 6 7.44 6 2 C4.02 2 2.04 2 0 2 C0 1.34 0 0.68 0 0 Z" transform="translate(88 33)"/>
  <path fill="#1b3d65" d="M0 0 C-0.50095029 4.34156921 -3.10523005 6.89846077 -6 10 C-6.99 10.33 -7.98 10.66 -9 11 C-9.3125 8.8125 -9.3125 8.8125 -9 6 C-6.5625 3.25 -6.5625 3.25 -4 1 C-3 0 -3 0 0 0 Z" transform="translate(104 48)"/>
  <path fill="#9c9c9c" d="M0 0 C6.75 0.75 6.75 0.75 9 3 C9.125 6.125 9.125 6.125 9 9 C5.37 9 1.74 9 -2 9 C-2 8.67 -2 8.34 -2 8 C0.97 8 3.94 8 7 8 C6.34 6.68 5.68 5.36 5 4 C1.94091587 3.18415432 1.94091587 3.18415432 -1 3 C-0.67 2.01 -0.34 1.02 0 0 Z" transform="translate(49 32)"/>
  <path fill="#9d9d9d" d="M0 0 C3 1 3 1 4.25 2.5625 C6.97876849 4.8039884 9.60213991 4.1923317 13 4 C12.67 4.99 12.34 5.98 12 7 C4.72727273 7.36363636 4.72727273 7.36363636 1.5 5.75 C0 4 0 4 0 0 Z" transform="translate(45 44)"/>
  <path fill="#999" d="M0 0 C0.66 0 1.32 0 2 0 C2.31898502 2.95061143 2.4433581 4.44098326 0.5625 6.8125 C-3.24369483 8.57634638 -6.87178296 8.23816637 -11 8 C-11 7.01 -11 6.02 -11 5 C-8.98177083 5.03255208 -6.96354167 5.06510417 -4.9453125 5.09765625 C-2.91814596 5.12649242 -2.91814596 5.12649242 -1 4 C-0.34786708 1.97536745 -0.34786708 1.97536745 0 0 Z" transform="translate(183 43)"/>
  <path fill="#a7a7a7" d="M0 0 C1.23556641 0.01740234 1.23556641 0.01740234 2.49609375 0.03515625 C3.32238281 0.04417969 4.14867187 0.05320312 5 0.0625 C5.63808594 0.07410156 6.27617187 0.08570312 6.93359375 0.09765625 C6.93359375 1.08765625 6.93359375 2.07765625 6.93359375 3.09765625 C5.65484375 3.22140625 4.37609375 3.34515625 3.05859375 3.47265625 C-0.41431561 3.78808024 -0.41431561 3.78808024 -3.06640625 6.09765625 C-3.72640625 5.76765625 -4.38640625 5.43765625 -5.06640625 5.09765625 C-2.6606399 0.12573913 -2.6606399 0.12573913 0 0 Z" transform="translate(177.066 31.902)"/>
  <path fill="#204166" d="M0 0 C0.66 0.33 1.32 0.66 2 1 C0.94124926 4.40312738 -0.00902154 7.01353231 -2 10 C-3.32 9.67 -4.64 9.34 -6 9 C-2.25 2.25 -2.25 2.25 0 0 Z" transform="translate(65 26)"/>
  <path fill="#989a9c" d="M0 0 C0.66 1.32 1.32 2.64 2 4 C1.24172908 5.17487036 0.46792245 6.33972592 -0.3125 7.5 C-0.74175781 8.1496875 -1.17101562 8.799375 -1.61328125 9.46875 C-2.07089844 9.9740625 -2.52851562 10.479375 -3 11 C-3.99 11 -4.98 11 -6 11 C-4.54955729 6.89041233 -2.48889248 3.56741255 0 0 Z" transform="translate(74 40)"/>
  <path fill="#959595" d="M0 0 C0.33 1.32 0.66 2.64 1 4 C3.64 4 6.28 4 9 4 C9 4.33 9 4.66 9 5 C6.03 5 3.06 5 0 5 C0.33 6.32 0.66 7.64 1 9 C0.01 9.33 -0.98 9.66 -2 10 C-2.1953125 3.9453125 -2.1953125 3.9453125 -2 2 C-1.34 1.34 -0.68 0.68 0 0 Z" transform="translate(152 36)"/>
  <path fill="#f6f6f6" d="M0 0 C1.65 0 3.3 0 5 0 C5.66 1.32 6.32 2.64 7 4 C4.03 4 1.06 4 -2 4 C-1.34 2.68 -0.68 1.36 0 0 Z" transform="translate(49 35)"/>
  <path fill="#f9f9f9" d="M0 0 C1.65 0 3.3 0 5 0 C5.33 1.32 5.66 2.64 6 4 C3.36 4 0.72 4 -2 4 C-1.34 2.68 -0.68 1.36 0 0 Z" transform="translate(155 35)"/>
  <path fill="#a1a1a1" d="M0 0 C3.625 -0.1875 3.625 -0.1875 7 0 C7 0.99 7 1.98 7 3 C4.03 3 1.06 3 -2 3 C-1.34 2.01 -0.68 1.02 0 0 Z" transform="translate(8 37)"/>
  <path fill="#ababab" d="M0 0 C0.99 0 1.98 0 3 0 C3.33 2.31 3.66 4.62 4 7 C5.65 7.33 7.3 7.66 9 8 C7.1875 9.0625 7.1875 9.0625 5 10 C4.01 9.67 3.02 9.34 2 9 C2 6.36 2 3.72 2 1 C1.34 0.67 0.68 0.34 0 0 Z" transform="translate(108 26)"/>
  <path fill="#a4a6a8" d="M0 0 C-1 2 -2 4 -3 6 C-3.66 6 -4.32 6 -5 6 C-5.33 5.01 -5.66 4.02 -6 3 C-3.375 0 -3.375 0 0 0 Z" transform="translate(85 29)"/>
  <path fill="#a0a0a0" d="M0 0 C2.64 0.33 5.28 0.66 8 1 C8 1.66 8 2.32 8 3 C5.36 3 2.72 3 0 3 C0 2.01 0 1.02 0 0 Z" transform="translate(172 48)"/>
</svg>