
<svg xmlns="http://www.w3.org/2000/svg" xml:space="preserve" viewBox="0 0 32 32"><path d="M14.36 30V14a.36.36 0 0 0-.36-.36H1a.36.36 0 0 0-.36.36v16c0 .199.161.36.36.36h13a.36.36 0 0 0 .36-.36zm-13-15.64h12.28v15.28H1.36V14.36zm30 14.64v-3a.36.36 0 0 0-.36-.36h-9a.36.36 0 0 0-.36.36v3c0 .199.161.36.36.36h9a.36.36 0 0 0 .36-.36zm-9-2.64h8.279v2.279H22.36V26.36zM12 25.64H3v.721h9v-.721zM25.36 23v-3a.36.36 0 0 0-.36-.36h-7a.36.36 0 0 0-.36.36v3c0 .199.161.36.36.36h7a.36.36 0 0 0 .36-.36zm-7-2.64h6.279v2.279H18.36V20.36zM12 21.64H3v.721h9v-.721zm0-3.999H3v.721h9v-.721zM31.36 17v-3a.36.36 0 0 0-.36-.36h-9a.36.36 0 0 0-.36.36v3c0 .199.161.36.36.36h9a.36.36 0 0 0 .36-.36zm-9-2.64h8.279v2.28H22.36v-2.28zm9-3.36V8a.36.36 0 0 0-.36-.36h-9a.36.36 0 0 0-.36.36v3c0 .199.161.36.36.36h9a.36.36 0 0 0 .36-.36zm-9-2.64h8.279v2.28H22.36V8.36zM14.509 4l-3.255 3.254-.509-.509 2.385-2.386H5A1.644 1.644 0 0 0 3.36 6v5h-.72V6A2.363 2.363 0 0 1 5 3.64h8.131l-2.385-2.386.509-.509L14.509 4zM25.36 5V2a.36.36 0 0 0-.36-.36h-7a.36.36 0 0 0-.36.36v3c0 .199.161.36.36.36h7a.36.36 0 0 0 .36-.36zm-7-2.64h6.279v2.28H18.36V2.36z"/><path fill="none" d="M0 0h32v32H0z"/></svg>