<svg xmlns="http://www.w3.org/2000/svg" xmlns:xlink="http://www.w3.org/1999/xlink" xml:space="preserve" version="1.0" viewBox="0 0 437.571 203.218">
  <defs>
    <linearGradient xlink:href="#a" id="h" x1="218.786" x2="218.786" y1="1.039" y2="202.718" gradientUnits="userSpaceOnUse"/>
    <linearGradient xlink:href="#b" id="i" x1="218.253" x2="218.253" y1="170.357" y2="37.341" gradientUnits="userSpaceOnUse"/>
    <linearGradient xlink:href="#c" id="k" x1="397.478" x2="370.733" y1="116.972" y2="116.972" gradientUnits="userSpaceOnUse"/>
    <linearGradient xlink:href="#d" id="l" x1="730.297" x2="703.554" y1="117.72" y2="117.72" gradientTransform="scale(-1 1) rotate(-1.501 341.61 29415.289)" gradientUnits="userSpaceOnUse"/>
    <linearGradient xlink:href="#a" id="m" x1="218.786" x2="218.786" y1="122.652" y2="156.099" gradientTransform="translate(-323.695 -176.946) scale(2.48056)" gradientUnits="userSpaceOnUse"/>
    <radialGradient xlink:href="#e" id="g" cx="218.254" cy="95.125" r="79.13" gradientUnits="userSpaceOnUse"/>
    <radialGradient xlink:href="#f" id="j" cx="218.565" cy="96.648" r="25.083" gradientTransform="matrix(1.222 0 0 1.2633 -48.583 -25.68)" gradientUnits="userSpaceOnUse"/>
  </defs>
  <path fill="#fff" fill-rule="evenodd" stroke="#fff" stroke-width=".952" d="M216.732-11.684c62.556-3.57 123.008 33.69 168.214 67.262 16.103 11.957 50.262 34.846 39.762 53.571-13.547 15.624-39.246 7.8-81.667 28.095-56.297 26.934-60.003 42.955-124.762 43.413-66.986.474-68.51-17.922-127.857-44.365-46.845-20.873-72.787-11.507-78.333-27.857-7.557-21.466 22.575-41.258 39.047-52.857C125.866 2.953 158.46-11.74 216.732-11.684z" clip-rule="evenodd"/>
  <g transform="translate(10.418 -12.399) scale(.95238)">
    <radialGradient id="e" cx="218.254" cy="95.125" r="79.13" gradientUnits="userSpaceOnUse">
      <stop offset=".533" stop-color="#1b617e"/>
      <stop offset=".563" stop-color="#457e96"/>
      <stop offset=".598" stop-color="#709cae"/>
      <stop offset=".637" stop-color="#97b7c4"/>
      <stop offset=".678" stop-color="#b7cdd6"/>
      <stop offset=".722" stop-color="#d1dfe5"/>
      <stop offset=".77" stop-color="#e6eef1"/>
      <stop offset=".824" stop-color="#f4f7f9"/>
      <stop offset=".89" stop-color="#fcfdfe"/>
      <stop offset="1" stop-color="#fff"/>
    </radialGradient>
    <ellipse cx="218.254" cy="95.125" fill="url(#g)" rx="80" ry="78.25"/>
    <ellipse cx="218.254" cy="95.875" fill="none" stroke="#004c78" stroke-width="12" opacity=".3" rx="74.25" ry="72.382"/>
    <g fill="none" stroke="#002040">
      <ellipse cx="218.254" cy="95.125" rx="80" ry="78.25"/>
      <ellipse cx="218.371" cy="96.119" rx="77.633" ry="75.738"/>
      <ellipse cx="218.463" cy="96.959" rx="75.093" ry="73.01"/>
      <ellipse cx="218.628" cy="96.958" rx="35.958" ry="36"/>
      <ellipse cx="218.295" cy="96.959" rx="43.791" ry="43.667"/>
      <ellipse cx="218.128" cy="96.458" rx="51.291" ry="51.167"/>
      <ellipse cx="218.628" cy="96.417" rx="58.291" ry="57.125"/>
      <ellipse cx="218.254" cy="96.125" rx="64.5" ry="63"/>
      <ellipse cx="218.129" cy="96.5" rx="68.875" ry="66.875"/>
      <ellipse cx="218.254" cy="96.375" rx="72.5" ry="70.75"/>
    </g>
    <path fill="none" stroke="#002040" d="m196.67 74.125-30.666-38.5m28.166 40.5-35.666-34m41 29.167-28.667-39.5m32.333 37.833-27.666-41m32.666 38.5-27-41.833m12.167 53.833L153.67 48.292m38 33.5-42.833-26.167m41.5 29.5L144.67 63.459m44.5 24.666-47.5-17m46.334 19.834L139.67 79.625m48 14.834-49.166-7.167m49.5 10.167-49.834-1.667m50 5-49.666 3.167m50-.667-48.334 8.833m49.167-5.666-46.833 14m48.5-11-45.667 18.333m46.833-15.333-42.666 23m44.166-20.834-39.166 28m41.5-25-36.667 30.834m39-29-32.667 34.333m34.667-32.333-28.333 37.833m31.166-35.833-23.833 39.833m26.667-38.5-19.334 42m22.334-40.667-15 43.834m18.5-42.334-10.5 43.834m13.833-43.334-6 44.834m8.5-44.334-.083 44.75m2.917-44.583 5.5 44m-2.667-44.667 10.833 43.5m-7.833-45.5 15.5 43m-12.667-44.666 20.334 42.333m-17.167-43.667 24.667 40m-21.834-41.833 28.834 37.833m-25.834-39.5 32.5 34.334m-30.333-36.667 36 31m-34.333-33.333 39.666 27.166m-37-29.5 40.834 22.667m-40-25.667 44.166 18.5m-43-21.666 46.167 14.833m-45.333-17.667 47.833 8.667m-47.333-11.167 49 2.5m-48.667-6.833 49.167-.667m-49.334-2 49-6.166m-49.666 3.333 48.5-11.667m-48.667 8.667 46.5-16.833m-48.167 13.666 45-21.666m-46 18.333 42.5-25.5m-44.5 23.167 39.834-30.167m-42.167 27.333 36.667-33.666m-39.167 30.666 33.833-36m-36.833 34.167 31.167-39m-33 36.667 26.5-41.167m-31.667 39.167 24.167-43.167m-27.5 41 19.333-44.333m-23 43.666 14.167-45.666m-17.667 45.166-.167-47.166m-1 47.333-9-47.167m-18 4.667 21.167 43.667m-11.667-46.5 14.5 46.166m5.834-.666 6.833-47"/>
  </g>
  <path fill="#fff" d="M152.089 36.53c2.284-3.461 2.74-7.778 5.47-11.011 2.915-3.45 6.674-7.868 10.286-10.597 4.688-3.542 11.59-6.335 17.054-8.338 3.978-1.458 7.931-2.082 12.114-3.132C206.8.997 216.275-.07 226.534.34c8.754.35 17.846 1.915 25.71 5.731 4.521 2.195 8.457 5.347 12.458 8.008 3.638 2.42 6.15 4.438 8.975 7.52 2.941 3.207 8.28 9.255 8.046 13.847-16.507-5.461-32.532-10.264-50.016-10.814-17.237-.542-40.57.59-53.07 3.03-7.511 1.466-18.156 5.297-26.787 8.869m35.16 110.159c11.27 2.261 22.424 3.482 33.174 3.173 12.42-.357 19.088-1.35 33.373-4.683-6.649 7.641-10.952 8.89-19.545 10.431-7.074 1.269-14.438-.138-21.658-.096-5.933.034-13.314.687-18.759-1.778-2.703-1.224-2.973-3.04-4.721-4.826"/>
  <g transform="translate(10.418 -12.399) scale(.95238)">
    <linearGradient id="a" x1="218.786" x2="218.786" y1="1.039" y2="202.718" gradientUnits="userSpaceOnUse">
      <stop offset=".472" stop-color="#c7e9f2"/>
      <stop offset=".57" stop-color="#b2dff1"/>
      <stop offset="1" stop-color="#45beee"/>
    </linearGradient>
    <path fill="url(#h)" fill-rule="evenodd" d="M216.588 1.292c65.684-3.749 129.2 34.833 176.666 70.083 16.908 12.556 52.775 36.589 41.75 56.25-14.225 16.405-41.208 8.19-85.75 29.5-59.112 28.28-63.004 45.102-131 45.583-70.336.498-71.937-18.817-134.25-46.583-49.188-21.917-76.427-12.082-82.25-29.25-7.934-22.54 23.704-43.32 41-55.5C121.22 16.119 155.4 1.235 216.588 1.292z" clip-rule="evenodd" opacity=".6"/>
    <linearGradient id="b" x1="218.253" x2="218.253" y1="170.357" y2="37.341" gradientUnits="userSpaceOnUse">
      <stop offset=".418" stop-color="#fff"/>
      <stop offset=".492" stop-color="#def1f8"/>
      <stop offset=".669" stop-color="#9cd7ec"/>
      <stop offset=".819" stop-color="#65c7e5"/>
      <stop offset=".934" stop-color="#34bee0"/>
      <stop offset="1" stop-color="#04bbdf"/>
    </linearGradient>
    <path fill="url(#i)" fill-rule="evenodd" d="M217.233 37.597c43.265-2.001 75.859 6.506 163.27 69.278 6.089 4.37 27.485 13.133 23.25 15.25-10.5 5.25-19.86-.11-43.75 6.5-45.548 12.599-93.935 41.865-141.827 41.732-48.385-.133-69.268-18.231-143.672-41.482-16-5-37.5-2.25-41.5-6-5.313-4.98 17.219-11.008 24.669-16.185 100.824-70.048 116.466-69.13 159.56-69.093z" clip-rule="evenodd" opacity=".4"/>
    <g opacity=".5">
      <path fill="#fff" fill-rule="evenodd" d="M242.415 62.64c-1.435-7.466-7.46-10.565-12.833-9.757" clip-rule="evenodd"/>
      <path fill="none" d="M242.415 62.64c-1.435-7.466-7.46-10.565-12.833-9.757"/>
      <path fill="#fff" d="M252.074 60.05c-1.917-8.816-9.947-11.926-18.264-10.889-4.3.537-9.573 1.58-12.947 4.545-3.284 2.886 2.903 3.096 4.49 2.898 1.916-.239-1.76-.074.175-.023-1.393-.037.343.127.576.181.803.187 1.67.741 2.498 1.306 2.412 1.644 3.554 4.403 4.154 7.16.61 2.807 9.002.585 10.408.208 1.634-.438 9.54-2.496 8.91-5.385z"/>
    </g>
  </g>
  <g opacity=".58" transform="translate(10.418 -12.399) scale(.95238)">
    <radialGradient id="f" cx="218.565" cy="96.648" r="25.083" gradientTransform="matrix(1.222 0 0 1.2633 -48.583 -25.68)" gradientUnits="userSpaceOnUse">
      <stop offset=".802" stop-color="#091520"/>
      <stop offset=".824" stop-color="#0d1925"/>
      <stop offset=".854" stop-color="#162431"/>
      <stop offset=".888" stop-color="#233445"/>
      <stop offset=".927" stop-color="#324b65"/>
      <stop offset=".968" stop-color="#436a93"/>
      <stop offset="1" stop-color="#4d88c7"/>
    </radialGradient>
    <path fill="url(#j)" d="M249.004 96.419c0 17.585-13.655 31.84-30.505 31.84-16.84 0-30.495-14.255-30.495-31.84 0-17.59 13.654-31.846 30.495-31.846 16.85 0 30.505 14.256 30.505 31.846z"/>
    <path fill="none" stroke="#fff" d="m218.295 53.292-.041 86.208"/>
    <path fill="none" stroke="#fff" stroke-width="1.6" d="m177.171 96.958 83.417-.166" opacity=".75"/>
    <ellipse cx="218.462" cy="96.709" fill="none" stroke="#fff" stroke-width="1.6" opacity=".76" rx="13.709" ry="14.333"/>
    <ellipse cx="218.379" cy="96.542" fill="none" stroke="#fff" stroke-width="1.6" opacity=".79" rx="30.375" ry="31.083"/>
    <ellipse cx="218.17" cy="96.543" fill="#fff" stroke="#fff" rx="4.834" ry="4.666"/>
  </g>
  <g fill="none" stroke="#004c78" clip-rule="evenodd">
    <path stroke-width=".952" d="M216.732-11.684c62.556-3.57 123.008 33.69 168.214 67.262 16.103 11.957 50.262 34.846 39.762 53.571-13.547 15.624-39.246 7.8-81.667 28.095-56.297 26.934-60.003 42.955-124.762 43.413-66.986.474-68.51-17.922-127.857-44.365-46.845-20.873-72.787-11.507-78.333-27.857-7.557-21.466 22.575-41.258 39.047-52.857C125.866 2.953 158.46-11.74 216.732-11.684z" opacity=".8"/>
    <path stroke-width=".952" d="M215.898-7.518C275.58-10.9 333.47 24.11 376.601 55.915c15.361 11.328 51.22 33.352 41.202 51.091-12.927 14.801-40.244 8.156-80.714 27.381-53.714 25.52-57.741 40.52-119.524 40.953-63.91.45-66.237-17.088-122.857-42.143-44.693-19.776-70.312-12.253-75.953-27.62-6.904-18.809 23.65-38.672 39.366-49.662C129.42 6.057 160.302-7.57 215.898-7.518z" opacity=".8"/>
    <path stroke-width=".952" d="M216.613-5.375c57.971-3.333 114.032 30.011 155.927 61.346 14.922 11.16 54.733 36.277 40.978 50.797-12.858 13.572-40.047 7.569-79.358 26.51-52.174 25.142-56.086 38.966-116.1 39.392-62.077.445-64.337-15.882-119.335-40.563C55.31 112.624 28.52 120 23.04 104.863c-6.707-18.53 24.88-38.067 40.145-48.893C132.44 6.852 162.61-5.427 216.613-5.375z" opacity=".8"/>
    <path stroke-width=".952" d="M216.471-9.558c61.46-3.489 120.3 32.667 164.712 65.471 15.822 11.683 49.972 33.799 39.658 52.096-13.311 15.268-38.276 8.521-80.236 27.452-55.833 25.19-58.951 41.973-122.575 42.42-65.812.463-68.084-18.018-125.615-43.35-45.568-20.064-71.472-12.731-76.96-27.222-7.528-19.871 21.651-38.954 38.734-51.154 70.29-50.2 105.032-65.767 162.282-65.713z" opacity=".8"/>
    <path stroke-width=".571" d="M217.089 19.744c44.888-.02 76.19 6.31 168.352 73.028 6.268 4.537 22.124 10.9 18.553 14.234-10.612 9.905-14.694.195-39.361 7.018-47.03 13.01-97.008 43.91-146.459 43.773-49.96-.139-69.062-19.036-145.847-43.172-10.443-3.282-34.115-.073-39.048-7.38-4.207-6.233 11.476-9.843 19.169-15.188 104.105-72.327 120.144-72.293 164.64-72.313z" opacity=".7"/>
    <path stroke-width=".571" d="M216.97 20.935c43.789-.078 76.666 6.19 165.134 71.287 6.108 4.494 22.173 10.835 19.985 14.07-5.476 8.095-17.532.775-39.762 7.143-45.714 13.095-95.714 42.143-144.144 42.512-48.716.37-68.94-18.383-144.19-42.036-10.233-3.216-33.81-.476-38.81-6.429-4.74-5.643 13.049-10.721 20.587-15.96 102.023-70.88 118.085-70.51 161.2-70.587z" opacity=".7"/>
    <path stroke-width=".571" d="M217.208 22.066c42.572.009 75.714 5.654 161.626 69.609 5.96 4.437 22.779 11.522 20.636 14.379-4.784 6.379-18.97.867-40.238 6.666-44.524 12.143-93.55 41.537-141.042 41.405-47.981-.133-68.31-17.748-142.054-40.928-10.029-3.152-33.81-1.19-38.81-5.953-5.229-4.98 14.313-11.121 21.7-16.255 99.983-69.463 115.447-68.933 158.182-68.923z" opacity=".7"/>
    <path stroke-width=".571" d="M217.267 23.256c42.308-.114 72.798 4.822 158.362 68.111 5.855 4.33 25.43 12.124 21.46 14.449-9.762 5.714-17.395-.017-40.714 6.19-44.431 11.827-91.635 40.691-138.178 40.562-47.021-.13-68.363-17.608-140.632-40.324-9.829-3.088-32.143-1.19-37.857-5.714-5.549-4.393 15.27-10.804 22.51-15.835C160.2 22.62 175.388 23.37 217.268 23.256z" opacity=".7"/>
    <path stroke-width=".571" d="M217.357 24.357c41.21-.211 72.708 5.625 155.446 66.459 5.75 4.228 26.176 12.507 22.143 14.523-10 5-18.915-.104-41.667 6.191-43.38 11.999-89.462 39.872-135.074 39.745-46.08-.127-65.97-17.363-136.83-39.507-15.239-4.762-35.933-1.923-39.524-5.714C37.565 101.53 58.25 95.57 65.345 90.64c96.023-66.713 110.97-66.072 152.012-66.283z" opacity=".7"/>
  </g>
  <g fill="none" stroke="#004c78" stroke-width=".952">
    <path d="M281.613 137.959c9.444 5.539 16.428 10.714 12.143 25.714" clip-rule="evenodd" opacity=".8"/>
    <path d="M304.946 157.959c4.286-12.381-5.325-24.524-11.905-24.524m22.381 18.333c4.524-10.714-5.952-21.667-11.428-23.095m22.619 16.905c2.619-11.429-6.429-19.286-11.19-20.953m21.427 15.476c2.144-10.952-5.713-17.857-11.428-19.523m20.715 14.762c1.904-11.905-3.334-18.334-8.334-19.524m16.191 16.19c5.476-11.666-1.19-18.571-3.81-20m12.143 17.143c7.381-13.571 2.381-18.81-.476-19.524m11.905-1.666c7.142 9.047-.64 18.81-1.429 18.81m11.429-19.049c7.142 8.096-.106 15.953-.238 15.953m8.809-17.143c5.238 8.571-.746 15.476-1.667 15.476m4.286-16.666c7.857 3.57 10.476 10.238 10.238 13.809m-9.762-15c0 .526 14.048 2.857 30.953.952m-3.095-14.523c-3.096 4.285-13.738 10.714-30.715 10.714m20-23.572c0 11.582-13.095 15.477-24.524 20.953m13.334-31.191c0 15.925-12.62 21.905-21.429 27.143m9.524-35.476c0 16.582-10.238 24.286-18.81 30m8.572-37.857c0 16.845-9.286 25-19.048 30.476m8.572-37.858c0 16.846-9.286 24.049-18.81 30.477m6.429-38.809c0 18.424-6.429 27.857-15 33.333m2.619-41.429c3.81 19.286-6.905 31.429-11.429 35.238m-2.381-43.333c7.62 15.476-3.333 29.524-8.333 36.905m-1.667-41.667c5 19.524-4.286 31.905-10 35.238m-2.619-41.666c5.952 18.571-3.571 29.523-8.81 35.476m-1.666-40c3.81 14.524-3.572 30.714-9.524 34.524M138.994 2.64c-3.016 20.636 6.349 33.334 9.682 35.715M129.152 7.086c-5.555 20.476 6.032 34.603 8.413 36.983M117.724 12.64c-6.508 20.16 5.714 34.287 9.047 37.461m-21.428-30.476c-4.603 19.206 6.666 33.81 10.317 37.62M92.803 27.403c-1.27 19.206 8.095 33.81 12.54 36.508M80.104 35.498c-3.333 16.667 9.842 31.43 15.715 34.127M68.2 43.593C65.978 60.578 80.104 71.371 87.565 75.18M57.406 50.895c0 17.197 11.746 27.778 20.159 31.111M47.089 58.673c-1.111 16.826 11.904 28.095 20 30.635M37.406 65.022c-1.27 17.62 12.381 25.238 18.889 30.158M23.597 77.244c0 11.756 13.65 16.508 24.762 21.27m-35.397-7.46c0 5.615 13.174 8.73 30.159 10.159m-32.223 3.65s13.651 2.381 30.159 0M30.74 119.625c0-7.502 5.714-12.38 11.11-13.571m2.382 1.031c-4.445 8.255 1.136 15.874 2.54 15.874m5.555-14.762c-5.873 8.412.355 15.873.794 15.873m9.523-15.556c-6.666 9.683.923 18.254 2.064 18.254m8.572-16.984c-6.35 10.158.354 19.682.793 19.682m9.047 3.81c-5.555-12.063 1.137-20.317 2.54-20.317m6.35 23.968c-5.239-11.428 2.555-20.159 5.714-20.159m1.904 23.81c0-10.792 5.238-18.572 10.636-19.524m-.16 24.762c-2.221-11.905 5.874-19.365 10.953-20.476m-.793 25.714c-2.223-13.334 6.19-19.841 11.587-21.746m-1.271 27.619c-.952-13.333 6.826-21.747 13.017-23.016m-2.857 28.73c-2.381-15.08 7.46-23.016 13.968-24.444" opacity=".8"/>
  </g>
  <g transform="translate(10.418 -12.399) scale(.95238)">
    <linearGradient id="c" x1="397.478" x2="370.733" y1="116.972" y2="116.972" gradientUnits="userSpaceOnUse">
      <stop offset="0" stop-color="#fff"/>
      <stop offset=".114" stop-color="#e0edf4"/>
      <stop offset=".337" stop-color="#aacee1"/>
      <stop offset=".544" stop-color="#80b5d3"/>
      <stop offset=".731" stop-color="#61a3c8"/>
      <stop offset=".889" stop-color="#4f98c1"/>
      <stop offset="1" stop-color="#4894bf"/>
    </linearGradient>
    <path fill="url(#k)" fill-rule="evenodd" stroke="#004c78" d="M384.54 113.585c1.814 1.258 3.562 1.962 5.528 3.03 1.594.868 3.217 1.68 4.817 2.535 1.247.666 3.556 2.068 2.156 3.706-.91 1.066-3.111.899-4.402 1.08-2.045.284-4.56.175-6.6 0-2.498-.217-5.11.375-7.651.375-1.835 0-3.684.079-5.5.074-.654-.002-1.478.15-1.925-.427-.465-.598-.139-1.263.224-1.76.436-.594.846-1.386 1.37-1.85.47-.413 1.086-.7 1.556-1.063 1.147-.883 1.545-1.818.53-2.959-1.01-1.136-1.752-1.94-1.804-3.548-.065-2.054 1.24-2.477 2.987-2.925 2.617-.671 2.397-.222 4.588 1.032 1.05.6 3.629 2.355 4.125 2.7z" clip-rule="evenodd" opacity=".5"/>
    <g opacity=".5">
      <path fill="none" d="M380.879 118.48c-.334 1.75 1.916 1.75 3.083 1.75"/>
      <path fill="#262261" d="M379.543 118.71c-.309 2.01 2.114 2.096 3.548 2.096.656 0 1.358-.146 1.913-.512.413-.273.37-.639-.17-.639-.96 0-2.843.055-2.62-1.404.11-.712-2.567-.22-2.671.459z"/>
    </g>
    <path fill="none" stroke="#1b75bc" stroke-width=".4" d="M384.047 114.94c1.322.917 2.596 1.431 4.031 2.208 1.161.633 2.344 1.225 3.51 1.848.91.486 2.593 1.508 1.573 2.703-.663.778-2.27.654-3.21.785-1.49.208-3.324.13-4.81 0-1.822-.156-3.725.276-5.579.276-1.337 0-2.685.056-4.01.052-.476 0-1.076.11-1.403-.31-.339-.435-.1-.92.163-1.284.319-.432.618-1.009 1-1.349.342-.3.791-.509 1.134-.773.835-.645 1.126-1.326.386-2.156-.736-.83-1.277-1.416-1.316-2.588-.047-1.498.904-1.805 2.18-2.133 1.907-.488 1.745-.161 3.343.753.767.437 2.646 1.718 3.008 1.968z" clip-rule="evenodd" opacity=".5"/>
    <path fill="none" stroke="#1b75bc" stroke-width=".4" d="M383.438 116.416c.867.6 1.703.938 2.646 1.447.76.416 1.537.805 2.303 1.213.595.319 1.7.99 1.03 1.774-.435.51-1.487.428-2.105.515-.978.137-2.181.084-3.156 0-1.195-.103-2.445.18-3.66.18-.878 0-1.762.037-2.63.035-.313 0-.709.072-.922-.204-.223-.284-.065-.605.107-.843.209-.282.405-.66.656-.885.225-.197.52-.334.744-.507.547-.422.738-.87.253-1.415-.483-.543-.839-.928-.863-1.697-.03-.984.592-1.184 1.428-1.4 1.252-.32 1.147-.106 2.196.494.504.287 1.736 1.127 1.973 1.293z" clip-rule="evenodd" opacity=".5"/>
  </g>
  <g transform="translate(10.418 -12.399) scale(.95238)">
    <linearGradient id="d" x1="730.297" x2="703.554" y1="117.72" y2="117.72" gradientTransform="scale(-1 1) rotate(-1.501 341.61 29415.289)" gradientUnits="userSpaceOnUse">
      <stop offset="0" stop-color="#fff"/>
      <stop offset=".114" stop-color="#e0edf4"/>
      <stop offset=".337" stop-color="#aacee1"/>
      <stop offset=".544" stop-color="#80b5d3"/>
      <stop offset=".731" stop-color="#61a3c8"/>
      <stop offset=".889" stop-color="#4f98c1"/>
      <stop offset="1" stop-color="#4894bf"/>
    </linearGradient>
    <path fill="url(#l)" fill-rule="evenodd" stroke="#004c78" d="M50.428 114.408c-1.847 1.21-3.613 1.867-5.607 2.884-1.616.825-3.26 1.595-4.881 2.408-1.264.633-3.61 1.973-2.252 3.648.88 1.09 3.086.98 4.372 1.194 2.037.338 4.554.295 6.597.174 2.503-.152 5.098.509 7.639.574 1.834.05 3.68.177 5.495.219.654.015 1.474.19 1.937-.376.48-.585.171-1.259-.18-1.766-.419-.604-.808-1.407-1.32-1.885-.459-.425-1.066-.727-1.527-1.102-1.123-.914-1.497-1.86-.452-2.973 1.04-1.11 1.802-1.893 1.897-3.5.119-2.052-1.112-2.85-2.91-3.003-2.316-.196-2.225.279-4.523 1.137-1.134.423-3.78 2.035-4.285 2.367z" clip-rule="evenodd" opacity=".5"/>
    <g opacity=".5">
      <path fill="none" d="M53.959 119.397c.287 1.758-1.961 1.7-3.128 1.67"/>
      <path fill="#262261" d="M52.606 119.76c.034.266.027.473-.087.719.004-.008-.114.143-.055.097.11-.084.291-.104.42-.131-.34.073-.67.06-1.183.046-.648-.016-1.367.152-1.913.512-.422.28-.361.625.172.639 1.674.043 5.668-.1 5.35-2.607-.073-.583-2.799-.023-2.704.725z"/>
    </g>
    <path fill="none" stroke="#1b75bc" stroke-width=".4" d="M50.884 115.775c-1.345.882-2.632 1.363-4.087 2.102-1.178.603-2.375 1.163-3.558 1.755-.922.463-2.63 1.44-1.643 2.661.642.794 2.252.714 3.188.87 1.485.247 3.32.215 4.809.125 1.825-.108 3.716.373 5.57.422 1.337.034 2.683.127 4.006.158.477.013 1.074.139 1.411-.274.35-.426.125-.917-.13-1.287-.306-.44-.59-1.026-.964-1.375-.333-.31-.777-.53-1.113-.804-.818-.666-1.09-1.355-.33-2.165s1.315-1.382 1.385-2.553c.086-1.496-.856-1.827-2.123-2.188-1.895-.54-1.742-.207-3.362.665-.778.417-2.69 1.647-3.059 1.888z" clip-rule="evenodd" opacity=".5"/>
    <path fill="none" stroke="#1b75bc" stroke-width=".4" d="M51.455 117.267c-.883.578-1.727.893-2.684 1.377-.77.396-1.557.764-2.333 1.152-.604.303-1.726.944-1.078 1.746.422.522 1.477.468 2.092.57.974.162 2.178.142 3.155.083 1.197-.072 2.44.244 3.655.276.877.023 1.76.084 2.628.104.312.008.705.091.926-.18.231-.279.08-.603-.085-.845-.201-.288-.388-.672-.632-.902-.22-.203-.511-.347-.73-.527-.537-.436-.716-.889-.217-1.42.496-.531.863-.907.908-1.674.056-.983-.562-1.2-1.392-1.437-1.243-.353-1.143-.136-2.207.436-.512.274-1.766 1.08-2.006 1.24z" clip-rule="evenodd" opacity=".5"/>
  </g>
  <text xml:space="preserve" x="216.626" y="207.548" fill="none" stroke="#373a45" stroke-width="7.814" font-family="Nimbus Mono L" font-weight="700" style="line-height:0%;-inkscape-font-specification:'Nimbus Mono L Bold';text-align:center" text-anchor="middle">
        <tspan x="216.626" y="207.548" dx="0 0 0 0 -5.899" font-size="57.301" style="line-height:100%;-inkscape-font-specification:'Nimbus Mono L Bold';text-align:center">NMAP.ORG</tspan>
    </text>
  <text xml:space="preserve" x="216.626" y="207.548" fill="url(#m)" stroke-width="1.86" font-family="Nimbus Mono L" font-weight="700" style="line-height:0%;-inkscape-font-specification:'Nimbus Mono L Bold';text-align:center" text-anchor="middle">
        <tspan x="216.626" y="207.548" dx="0 0 0 0 -5.899" font-size="57.301" style="line-height:100%;-inkscape-font-specification:'Nimbus Mono L Bold';text-align:center">NMAP.ORG</tspan>
    </text>
</svg>