<svg xmlns="http://www.w3.org/2000/svg" xml:space="preserve" version="1.0" viewBox="0 0 240 50">
  <path fill="#003262" d="M165.633 22.491c0-.768-.576-1.056-1.799-1.379-1.067-.288-2.243-.744-2.243-2.195 0-1.259 1.02-2.111 2.507-2.111.863 0 1.643.216 2.362.66l-.359.888c-.576-.384-1.319-.624-1.991-.624-1.079 0-1.523.492-1.523 1.116 0 .755.636 1.019 1.823 1.343 1.092.288 2.207.815 2.207 2.23 0 1.295-1.067 2.243-2.639 2.243-.876 0-1.787-.251-2.507-.708l.336-.923c.636.42 1.319.72 2.194.72.948-.001 1.632-.517 1.632-1.26zm8.17-4.138c-.659-.432-1.271-.636-2.051-.636-1.631 0-2.723 1.127-2.723 2.986s1.104 3.046 2.747 3.046c.803 0 1.595-.324 2.122-.732l.168 1.02c-.611.384-1.475.624-2.314.624-2.194 0-3.754-1.523-3.754-3.91s1.571-3.946 3.754-3.946c.852 0 1.763.24 2.375.624l-.324.924zm7.297 6.128v-3.31h-4.114v3.31h-1.02v-7.496h1.02v3.262h4.114v-3.262h1.007v7.496H181.1zm6.635.18c-2.194 0-3.766-1.535-3.766-3.91 0-2.243 1.559-3.946 3.766-3.946 2.195 0 3.767 1.523 3.767 3.898 0 2.243-1.56 3.958-3.767 3.958zm-.023-6.944c-1.596 0-2.711 1.187-2.711 2.986 0 1.847 1.115 3.046 2.759 3.046 1.595 0 2.723-1.2 2.723-2.999-.001-1.846-1.129-3.033-2.771-3.033zm9.023 6.944c-2.194 0-3.766-1.535-3.766-3.91 0-2.243 1.559-3.946 3.766-3.946 2.195 0 3.767 1.523 3.767 3.898 0 2.243-1.56 3.958-3.767 3.958zm-.023-6.944c-1.596 0-2.711 1.187-2.711 2.986 0 1.847 1.115 3.046 2.759 3.046 1.595 0 2.723-1.2 2.723-2.999-.001-1.846-1.129-3.033-2.771-3.033zm5.653 6.764v-7.496h1.02v6.537h3.622v.959h-4.642zm12.634.18c-2.194 0-3.766-1.535-3.766-3.91 0-2.243 1.559-3.946 3.766-3.946 2.195 0 3.767 1.523 3.767 3.898 0 2.243-1.56 3.958-3.767 3.958zm-.023-6.944c-1.596 0-2.711 1.187-2.711 2.986 0 1.847 1.115 3.046 2.759 3.046 1.595 0 2.723-1.2 2.723-2.999-.001-1.846-1.129-3.033-2.771-3.033zm5.653-.732h4.63v.959h-3.61v2.435h2.986v.947h-2.986v3.154h-1.02v-7.495zm-58.618 19.496v-7.496h1.007v7.496h-1.007zm9.045-7.496h.996v7.567h-1.104l-4.018-6.116v6.045h-.996v-7.496h1.128l3.993 6.045v-6.045zm3.374 0h4.63v.959h-3.61v2.436h2.986v.947h-2.986v3.154h-1.02v-7.496zm9.429 7.676c-2.194 0-3.766-1.535-3.766-3.91 0-2.242 1.56-3.945 3.766-3.945 2.195 0 3.767 1.522 3.767 3.897 0 2.243-1.56 3.958-3.767 3.958zm-.023-6.944c-1.596 0-2.711 1.188-2.711 2.986 0 1.847 1.115 3.047 2.759 3.047 1.595 0 2.723-1.2 2.723-2.999-.001-1.847-1.128-3.034-2.771-3.034zm6.553 6.764h-1.02v-7.496h2.243c1.811 0 2.758.863 2.758 2.194 0 1.128-.659 1.823-1.69 2.159l2.026 3.143h-1.211l-1.823-2.975-1.283.084v2.891zm1.235-3.826c.983-.036 1.728-.504 1.728-1.427 0-.888-.72-1.308-1.859-1.308h-1.104v2.771l1.235-.036zm11.351-2.411-2.279 6.129h-1.02l-2.29-6.141-.084 6.249h-.996l.252-7.496h1.355l2.303 6.165 2.291-6.165h1.331l.24 7.496h-1.032l-.071-6.237zm9.275 6.237h-1.043l-.708-1.967h-3.25l-.708 1.967h-1.056l2.818-7.496h1.164l2.783 7.496zm-3.37-6.44-1.295 3.55h2.578l-1.283-3.55zm7.247-.097v6.537h-1.008v-6.537h-2.627v-.959h6.261v.959h-2.626zm3.949 6.537v-7.496h1.007v7.496h-1.007zm6.67.18c-2.194 0-3.766-1.535-3.766-3.91 0-2.242 1.56-3.945 3.766-3.945 2.195 0 3.767 1.522 3.767 3.897 0 2.243-1.56 3.958-3.767 3.958zm-.023-6.944c-1.596 0-2.711 1.188-2.711 2.986 0 1.847 1.115 3.047 2.759 3.047 1.595 0 2.723-1.2 2.723-2.999-.001-1.847-1.129-3.034-2.771-3.034zm10.473-.732h.996v7.567h-1.104l-4.018-6.116v6.045h-.996v-7.496h1.128l3.993 6.045v-6.045z"/>
  <g fill="#FDB515">
    <path d="M12.665 19.609c-1.534 0-1.972.22-1.972 1.425v9.801c0 .494.164 3.56.657 4.108.603.656 2.354 1.04 4.108 1.04 4.161 0 7.228-2.848 7.228-7.611-.001-4.93-4.053-8.763-10.021-8.763m1.806-15.278c-3.614 0-3.778.493-3.778 1.588v11.884c0 .876.711.767 2.026.767 3.34 0 5.64.328 5.64.328 1.588-1.205 3.396-2.245 3.396-6.571 0-2.739-2.3-7.996-7.284-7.996m.712 32.638c-2.3 0-4.6-.547-7.01-.547-2.3 0-3.504.219-5.257.219-.548 0-.931-.056-.931-.603 0-.548.328-.657 1.533-.657 2.464 0 2.574-.109 2.574-.93V9.259c0-4.326-.877-4.818-2.41-4.818C1.218 4.441 1 4.386 1 3.729c0-.383.164-.438 1.095-.438 1.698 0 3.396.055 5.312.055 1.15 0 3.779-.329 8.707-.329 7.12 0 10.186 3.669 10.186 7.557s-2.354 5.805-4.107 7.009c-1.041.712-2.246 1.314-2.246 1.479 0 .109 1.041.383 2.136.931 2.574 1.314 5.805 3.177 5.805 7.941 0 6.132-5.093 9.035-12.705 9.035m22.828-19.314c-3.62 0-4.764 5.429-4.764 6.096 0 .239 0 .286.572.286 2.477 0 5.048-.62 8.621-1.191.524-.095.572-.19.572-.476 0-1.191-2.81-4.715-5.001-4.715m7.335 5.715c-1.238.286-6.002 1.334-11.431 1.667-.763.048-.906.286-.906 1.381 0 6.573 5.097 8.335 8.717 8.335 3.144 0 4.858-1.143 5.144-1.143.238 0 .381.285.381.381 0 .237-4.049 3.239-7.908 3.239-3.905 0-9.716-1.906-9.716-9.859 0-6.717 4.525-10.718 8.859-10.718 2.478 0 5.526 1.573 7.24 3.573.81.952 1.572 2.095 1.572 2.476.001.192-.666.382-1.952.668m17.433-1.286c-.667 0-1.238-1.953-3.621-1.953-2.762 0-3.81 1.143-3.81 3.143v9.813c0 2.334.143 2.334 3.667 2.334 1.238 0 1.286.143 1.286.572 0 .524-.047.477-1.286.477-.667 0-3.858-.238-5.382-.238-1.62 0-3.239.238-3.905.238-1.096 0-1.192 0-1.192-.477 0-.478.048-.572 1.192-.572 1.952 0 2.095-.048 2.095-.715V21.655c0-3.239.095-3.333-2.572-3.333-.858 0-.858.048-.858-.477 0-.572-.048-.715.763-.715 1.619 0 2.524.095 3.477.095.762 0 1.667-.238 2.429-.238.191 0 .381.143.381.524 0 .238-.096 1.286-.096 1.429 0 .429.047.762.238.762.714 0 2.953-2.477 5.191-2.477.858 0 3.049 1.048 3.049 2.287.001.476-.761 2.572-1.046 2.572"/>
    <path d="M85.308 36.66c-.571 0-1.19-.048-1.619-.048-.571 0-2 .048-2.667.048-.859 0-1.288-1.192-3.288-3.478-2-2.286-4.002-5.287-4.288-5.287-.19 0-.857.477-1.667 1-.762.477-1.429.811-1.429 1.239v3c0 2.238-.095 2.238 2.858 2.238 1.095 0 1.286.238 1.286.62 0 .477-.238.477-1.286.477-.714 0-2.905-.096-4.429-.096-1.62 0-3.382.096-4.049.096-1.096 0-1.381-.048-1.381-.477 0-.382.238-.62 1.381-.62 1.619 0 2.048 0 2.048-.715 0-1.381.143-15.479.143-25.529 0-3.382-.381-3.811-1.667-3.811-1.953 0-2.143-.143-2.143-.477 0-.476.095-.667.619-.667 3.429 0 6.24-1.047 6.668-1.047.238 0 .333.143.333.429 0 .619-.095 2.62-.095 4.144 0 7.24-.286 12.575-.286 20.338 0 .19.048.334.191.334 1.191 0 6.146-4.382 7.669-5.812 1.857-1.762 2.286-2.571 2.286-3.571 0-.762-.143-.857-2.238-.857-.714 0-.953-.096-.953-.524 0-.381.238-.477.857-.477.476 0 1.381.143 1.952.143.619 0 3.382-.143 3.954-.143.381 0 .572.048.572.191 0 .429-1.619 2.478-3.095 3.906-2.382 2.334-5.335 4.429-5.335 4.763 0 .429.857 1.334 4.191 5.335 1.621 1.952 3.144 4.286 4.763 4.286 1.143 0 1.524.238 1.524.62.002.333-.332.429-1.38.429"/>
    <path d="M93.549 17.655c-3.62 0-4.762 5.429-4.762 6.096 0 .239 0 .286.571.286 2.476 0 5.048-.62 8.621-1.191.523-.095.571-.19.571-.476.001-1.191-2.809-4.715-5.001-4.715m7.336 5.715c-1.239.286-6.002 1.334-11.432 1.667-.762.048-.905.286-.905 1.381 0 6.573 5.096 8.335 8.716 8.335 3.144 0 4.859-1.143 5.145-1.143.237 0 .38.285.38.381 0 .237-4.049 3.239-7.907 3.239-3.906 0-9.717-1.906-9.717-9.859 0-6.717 4.525-10.718 8.859-10.718 2.477 0 5.525 1.573 7.241 3.573.809.952 1.571 2.095 1.571 2.476.002.192-.665.382-1.951.668"/>
    <path d="M111.373 36.47c-.715 0-1.762-.096-2.62-.096-1.619 0-4.144.096-4.811.096-1.096 0-1.191-.096-1.191-.477 0-.334.048-.62 1.191-.62 1.953 0 2.763.048 2.763-.81V8.319c0-3-.286-3-2.429-3-.857 0-1.334-.095-1.334-.62 0-.571.381-.523 1.191-.571 3.715-.238 5.525-1.048 5.811-1.048.238 0 .476.238.476.762 0 .572-.237 2.287-.237 3.716 0 18.147-.238 21.91-.238 23.292 0 3.953.333 4.477 1.19 4.477 2.381 0 2.287.285 2.287.668-.001.475-.335.475-2.049.475"/>
    <path d="M121.022 17.655c-3.619 0-4.763 5.429-4.763 6.096 0 .239 0 .286.571.286 2.478 0 5.049-.62 8.623-1.191.523-.095.572-.19.572-.476 0-1.191-2.811-4.715-5.003-4.715m7.336 5.715c-1.238.286-6.002 1.334-11.432 1.667-.762.048-.906.286-.906 1.381 0 6.573 5.097 8.335 8.717 8.335 3.144 0 4.858-1.143 5.144-1.143.238 0 .381.285.381.381 0 .237-4.048 3.239-7.906 3.239-3.906 0-9.717-1.906-9.717-9.859 0-6.717 4.526-10.718 8.86-10.718 2.478 0 5.526 1.573 7.24 3.573.81.952 1.571 2.095 1.571 2.476.001.192-.666.382-1.952.668"/>
    <path d="M149.935 18.274c-1.048 0-3.144 5.716-6.906 14.861-3.002 7.287-5.145 11.146-6.668 14.29-.523 1.048-1.096 1.095-2.144 1.238-1.43.19-1.763.571-2.811.571-.811 0-1.286-.238-1.286-.477 0-.285 2.238-.571 3.858-2.619 1.715-2.144 5.811-7.765 5.811-9.192 0-.524-3.81-9.337-6.43-15.529-1.191-2.857-1.525-3.096-2.382-3.096-.953 0-1-.047-1-.476 0-.428.143-.667 1-.667 1.333 0 1.667.095 2.811.095 1.333 0 3-.143 4.524-.143 1 0 1.19.19 1.19.715 0 .429-.19.476-1.19.476-1.143 0-1.429.286-1.429 1.381 0 1.381 1.238 3.048 4.096 10.384.382 1 .953 1.81 1.144 1.81.333 0 .62-.667 1.381-2.906 1.144-3.429 2.858-8.383 2.858-9.049 0-1.429 0-1.714-1.619-1.714-1.476 0-1.667 0-1.667-.477 0-.62.143-.62 1-.62 1.286 0 2.143.095 3.43.095.715 0 2-.19 2.667-.19.762 0 1 .047 1 .572 0 .429-.667.667-1.238.667"/>
  </g>
</svg>