<svg xmlns="http://www.w3.org/2000/svg" width="48.555" height="70.832" version="1.0">
  <path d="M324.438 482.656v.031h-.094l-.031.032h-.032l-.031.031h-.031v.031h-.031l-.032.031c-.088.088-.125.212-.125.407v24.625c0 .191.037.322.125.406.083.083.216.125.406.125H331c2.505 0 4.046-.549 4.969-1.75 1.367-1.636 1.406-4.296 1.406-8.344v-5.531c0-4.052-.039-6.678-1.406-8.313-.923-1.2-2.464-1.78-4.969-1.78H324.438zm3.687 3h2.25c1.006 0 1.599.163 2.063.719.717.86.78 2.599.78 6.094v6.094c0 3.49-.063 5.233-.78 6.093-.464.556-1.057.719-2.063.719h-2.25v-19.719zM367.262 483.205v-.035l-.002-.017v-.016l-.002-.017-.003-.016v-.016l-.003-.015-.003-.014-.004-.015-.002-.014-.004-.013-.004-.014-.005-.013-.003-.012-.005-.013-.005-.012-.005-.011-.005-.012-.007-.01-.006-.01-.006-.012-.006-.01-.007-.01-.006-.01-.007-.01-.015-.018-.015-.017-.017-.018c-.082-.082-.2-.14-.395-.14h-3.008c-.195 0-.313.058-.395.14-.088.088-.147.205-.147.4v18.19c0 1.9-.142 3.027-.757 3.705-.42.459-1.015.684-1.845.684-.748 0-1.319-.21-1.754-.689-.585-.643-.766-1.733-.766-3.7v-18.19c0-.195-.054-.312-.141-.4-.084-.082-.2-.14-.397-.14h-3.012a.528.528 0 0 0-.395.14c-.088.088-.141.205-.141.4V501.4c0 2.651.356 4.311 1.41 5.469 1.093 1.201 2.745 1.841 5.25 1.841 2.538 0 4.165-.679 5.17-1.846 1.177-1.368 1.47-3.003 1.47-5.464v-18.194zM347.814 507.844l-.001.019v.016l-.001.018-.001.016-.002.016-.001.015-.002.016-.003.015-.002.014-.003.015-.004.014-.003.014-.004.013-.004.013-.005.012-.005.013-.005.011-.005.013-.005.01-.006.012-.005.01-.006.011-.007.01-.007.01-.006.009-.008.01-.006.009-.008.009-.016.017-.016.016c-.083.083-.2.142-.395.142h-3.296c-.19 0-.308-.06-.39-.142-.09-.083-.147-.205-.147-.396v-21.929h-3.867c-.195 0-.313-.057-.4-.146-.089-.082-.143-.2-.143-.395v-2.169c0-.195.054-.312.143-.4.087-.082.205-.14.4-.14h12.113a.54.54 0 0 1 .397.14c.082.088.141.205.141.4v2.17c0 .194-.059.312-.141.394-.089.089-.205.146-.397.146h-3.87v21.929z" style="font-style:normal;font-variant:normal;font-weight:400;font-stretch:normal;letter-spacing:normal;word-spacing:normal;text-anchor:start;fill:#707070;fill-opacity:1;fill-rule:nonzero;stroke:#707070;stroke-width:0;stroke-linecap:butt;stroke-linejoin:miter;stroke-miterlimit:10.43299961;stroke-dasharray:none;stroke-dashoffset:0;stroke-opacity:1" transform="translate(-321.437 -482.656)"/>
  <path d="m369.992 521.253-10.333 5.425c-13.383-5.205-14.511-5.205-27.89 0l-10.332-5.425 10.332-5.425c13.379 5.205 14.507 5.205 27.89 0l10.333 5.425zM369.992 534.66l-10.333 5.425c-13.383-5.205-14.511-5.205-27.89 0l-10.332-5.425 10.332-5.424c13.379 5.205 14.507 5.205 27.89 0l10.333 5.424zM369.992 548.064l-10.333 5.425c-13.383-5.205-14.511-5.205-27.89 0l-10.332-5.425 10.332-5.42c13.379 5.205 14.507 5.205 27.89 0l10.333 5.42z" style="font-style:normal;font-variant:normal;font-weight:400;font-stretch:normal;letter-spacing:normal;word-spacing:normal;text-anchor:start;fill:#c51137;fill-opacity:1;fill-rule:nonzero;stroke:#c51137;stroke-width:0;stroke-linecap:butt;stroke-linejoin:miter;stroke-miterlimit:10.43299961;stroke-dasharray:none;stroke-dashoffset:0;stroke-opacity:1" transform="translate(-321.437 -482.656)"/>
</svg>