<svg xmlns="http://www.w3.org/2000/svg" version="1.0" viewBox="0 0 192 192">
  <g fill="#FF5733">
    <path d="M24.3 30c-5.4 3.2-7.6 9.5-5.2 14.3.6 1.2 12 13.1 25.2 26.4L68.5 95l-24.7 24.7c-15.9 16-24.9 25.8-25.3 27.5-1 4 .2 7.6 3.4 10.9 3.3 3.2 6.9 4.4 10.9 3.4 3.7-.9 62.8-60 63.7-63.7.4-1.6.4-4 0-5.5-.7-3.1-57-60.4-61.7-62.9-3.7-1.9-6.7-1.8-10.5.6z"/>
    <path d="M103.3 30c-5.4 3.2-7.6 9.5-5.2 14.3.6 1.2 12 13.1 25.2 26.4L147.5 95l-24.7 24.7c-15.9 16-24.9 25.8-25.3 27.5-1 4 .2 7.6 3.4 10.9 3.3 3.2 6.9 4.4 10.9 3.4 3.7-.9 62.8-60 63.7-63.7.4-1.6.4-4 0-5.5-.7-3.1-57-60.4-61.7-62.9-3.7-1.9-6.7-1.8-10.5.6z"/>
  </g>
</svg>