<svg xmlns="http://www.w3.org/2000/svg" xml:space="preserve" viewBox="0 321 1590 623">
  <path fill="#AC61DA" stroke-miterlimit="10" stroke-width="2" d="M958 847.9c-61.2-7-304.5-74.5-350.9-90.5-68.2-23.6-91.8-52.9-100.3-83.5-8.3-30.6 0-46 0-46s-9.8 4.2-23.7 0l-13.9-4.2s-8.3 12.6-16.7 12.6c-8.3 0-12.6-12.6-12.6-12.6s-2.8 29.3-12.6 22.3-11.1-22.5-19.5-28c-8.3-5.4-15.4-15.2-29.3-6.9s-7 18.2-13.9 25c-7 7-21.6 7-29.3-4.2-7.6-11.1-23.7-17-30.6-8.5-6.9 8.5-1.5 9.8 1.5 14 2.8 4.2 2.8 44.5 162.8 96.1 160.1 51.6 489 114.4 489 114.4z"/>
  <path fill="#AC61DA" stroke-miterlimit="10" stroke-width="2" d="M815.9 875.7c-50.1-7-338.3-58.4-396.8-76.6C360.7 781 291 761.5 250.7 742c-40.4-19.4-62.7-32-87.7-43.2-25-11.1-42.3-18.9-67.7-21.5s-84 4.8-84 4.8 80.7 14 112.7 32.1 76.6 52.9 213.1 82.2c136.3 29.1 478.8 79.3 478.8 79.3z"/>
  <path fill="#AC61DA" stroke-miterlimit="10" stroke-width="2" d="M827.1 907.7s-286.7-27.8-377.2-50.1-242.2-74.6-271.5-85.3c-29.3-10.7-91.8-32.2-110-43.7S1.5 707.3.1 707.3s16.7 23.7 36.2 33.4c19.5 9.8 272.8 112.8 455.3 135 182.3 22.3 335.5 32 335.5 32z"/>
  <path fill="#AC61DA" stroke-miterlimit="10" stroke-width="2" d="M1235 806c-288.2-34.5-307.3-62.4-307.3-62.4l.9-24s18.2 15.4 44.5 27.8 128.1 33.4 227 46c50.6 6.4 228.4 15.8 389.8 23.3v-27.3c-169.5-8.6-470.9-28-561-61C921.4 689 905 639 900.8 631.9c-4.2-7-33.4-48.8-33.4-48.8l15.4 5.6s-7-11.1-8.3-15.4c-1.5-4.2 5.6-16.7 9.8-19.5 4.2-2.8 13.9-5.6 25 0s-1.5 18.2 0 27.8c1.5 9.8-2.8 31.9 19.5 64s101.6 69.7 189.3 94.7c60.4 17.2 317.7 36.4 472 46.6V743c-52.9 0-288.2 2.8-384.2-13.9S1025.4 696.5 972 654c-82.1-65.5-33.4-94.6-11.1-76.6 13.8 11.3 30.6 33.1 29.3 40.3l-8.3 2.9c-6.8-4.1-16 .9-16.7 8.3-.5 6.9 4.6 15.4 12.1 15.2-2.4 8.1 12.1 5.4 17.1 6-8 6.6 3.8 13 9.9 13.6 5.4.5 13-3 18.4-6.2-5.4 3.8-11.1 11.9-8.3 17 3.8 7 14.6 6.6 20.3 4.8 3.2 9.8 13.6 7.6 20.1 2.9 8.7-6.2 7.3-14.3 12.5-22.4 5.3-8.1 11.4-9.1 13.5-19.9 1.6-8-1.1-15.4-4-23.3 11.8-2.5 21.7-17 24.9-28.1 2.7-9.4-1.2-25.2-4.2-34.8-3.3-10.5-7.8-19.7-14.2-29-4.6-6.6-12.2-20.1-21.7-18.7-1.1-12.6-1.2-24.2-9.9-33.5-7.9-8.5-17.6-15.6-25.4-24.4-13.4-15-35.8-21.9-53.9-26.4-4.5-1.2-14.4.4-18.2-1.6-3.3-1.7-3.8-6.9-6.5-10.2-7.4-8.7-21.3-13.1-32.1-16.7-9.7-3.3-19.3-6.6-29.3-8.3-8.9-1.5-24.1-.1-32.1-4.2-4.5-2.4-6-5.6-12.9-6.4-6.1-.7-12.2-1.2-18.2-1.7-11.5-1.2-23.2-2-34.8-2.8-24.4-1.7-46.6 5.2-70.8 5.6-12.6.1-25 .4-36.4 4.2-10.1 3.3-19.6 4.9-30.6 5.8-11.8 1.1-24.1 4.4-34.5 9.8-3.7 2-7.4 6.8-11.1 8.3-4.4 2-10.6 1.1-15.6 1.1-22.1-.1-45.8 3.6-66.8 7-11 1.9-19.7 4.6-30.7 8.6-11.4 4.1-18.4 6.6-30.6 7.9-10.7 1.2-19.9 7.2-29.1 12.9-9.9 6.1-16 9.4-27.8 9.4-22.4-.1-43.2 10.1-62.7 19.1-11.3 5.2-20.7 4.6-33.4 4.5-11.7 0-21.5 6.2-31.9 7-6.4.4-11.7-4.1-18.2-2.9-5.4 1.1-11 6.9-15.4 9.8-10.6 7.2-23.8 13.9-36.2 17.8-11.7 3.6-24.4 3.3-36.2 6.2-12.7 3.2-24.1 6.6-37.6 6.6-11.8 0-22-4-33.4-2.8-10.6 1.1-20.8 4.6-31.9 5.6-10.9.9-22.3 2-33.4 2.8-9.5.7-25-1.6-32.1 4.2l-.3 24.5c73.5-8.1 161.8-18.9 161.8-18.9s-104 25.3-162.3 36l-.1 16c81.6-16.7 319.3-71.7 331.9-75.4 13.9-4.2-218.6 76.6-316 86.3-5.6.5-10.9 1.1-16 1.5l-.3 33c25-.1 55.1-3.8 91-13.8 146.5-40.3 296.9-82 296.9-82S168.5 627.7 89.2 639c-25.2 3.6-57.1 4.8-88.8 4.9L.1 675c.7-1.1 23.1-8.6 34.8-9.7 11.1-1.1 24.1-.7 34.8 1.1 11 1.9 22 1.9 33.4 3.4 4.9.7 10.5 4.4 15.4 3.8 4.4-.4 8.7-5.6 12.6-8.1 8.6-5.7 18-9.4 26.4-16 9.3-7.4 12.7-12.6 25.2-9.4 10.1 2.5 18.9 5.3 30.6 4.2 10.3-.9 19.2-4.5 29.3-7 14-3.6 27.8-7.3 40.7-13.5 6-2.9 10.9-7.3 16.4-10.1 8.1-4 10.3-1.5 18 1.1 9.8 3.2 29.2 9.7 37.2 0 4.9-5.8 1.9-11.7 8.3-16.7 6.4-4.9 13.9-3.4 20.9-5.4-2.5-19.2 46.2-16.8 57.2-17.9 10.7-.9 21.2-1.1 31-6.6 9.4-5.3 15.8-12.5 24.4-18.8 16.4-12.2 43.2-15.4 62.9-20.1 22.5-5.6 47.2-8.7 71-8.6 22.3.1 41.2 6 61.6 9.4 21.2 3.7 42.1 6.6 62.4 11.4 16.8 4 33.9 14.3 50.3 21.2 18.8 7.8 35.6 18.4 50.9 32.1 7.8 7 14.2 15 20.1 23.2 4.9 6.8 17.1 19.1 16.2 27.7-1.5.1-3.3.4-4.9.4 11.8 2.9 23.2 31.8 17.9 39.9 9.5 8.9 15.1 14.8 15.1 28.2 0 6 1.9 15.8-1.7 20.9-4 5.7-12.9 5.7-15.1-.9 2.8 10.5-8 11-15.1 10.5-.7-2.3-2.4-4.1-3-6.2 3 12.9-20.4 7.7-24.6 0-.7 11.1-6 25.6-19.7 24.6-12.1-.8-6.4-17.5.1-25.6-5.8 6.4-7 11-19.5 10.1-.7-8.1 2.1-9.5 4.4-16.2 1.6-5 1.7-12.9 1.1-18.4-.4-4.1-1.6-11.8-5.4-14.3-6.1-4-12.7-1.2-13.8 4.2-.1.7 2.5 6.6 2.5 8.6 0 3.7 0 5.2-1.7 8-2.3 3.7-8.2 7-12.2 7.3-17 1.3-9.5-16.3-6.2-25.3-1.7.7-4.1 2.1-5.8 2.9 1.2 3.3 2.1 9.5-.9 12.3-5.3 4.9-7.2-1.2-11.1-2.3-7-2-9.5 1.9-11.1-6.9-.8-4.2-.1-6.8 4-10.1-5.3-.9-6.4-10.9-2.4-13.6-7 2.7-15.8.3-16.8-8.3-.9-.5-4.4-1.5-5.3-1.5-.4 1.3-1.5 2.1-1.6 3.8-2.5.3-3.8 2-6.5 1.9-.1.8-.3 1.6-.5 2.3-6.2 2-17.5 8.9-22.4.4-5.3-9.1 10.3-14.8 17-15.6-.3-.1-1.6-1.1-2.4-1.3-.4-3 0-4.9 2.4-6.5-9.7 8-16.6-13.8-4.5-17-3.8.3-7.6.5-10.7-1.3l-2.8-1.5c-26.5-20.9-36.2 27.8 8.3 69.6s87.7 58.4 218.6 91.8 328.6 41.7 459.4 51.5c130.8 9.8 194.9 13.9 194.9 13.9v-42.1c-137.6-3.8-286.2-9.5-355.1-17.9z"/>
  <path fill="#AC61DA" stroke-miterlimit="10" stroke-width="2" d="M1175.1 856.3s-363.3-48.8-441.4-104.4c-77.9-55.7-71-77.9-69.6-91.8s9.8-37.8 9.8-41.9c0-4.1-13.9-21.7-22.3-10.1s-5.2 26.9-21.3 29.7c-16.2 2.8-35.6-9.8-35.6-9.8s-4.2 1.5-18.2 4.2c-13.9 2.8-19.5-7-19.5-7s1.5 9.8-8.3 11.1c-9.8 1.5-18.2-9.8-18.2-9.8l-9.8 9.8s-11.1 75.1 119.8 117 534.6 103 534.6 103z"/>
  <path fill="#AC61DA" stroke-miterlimit="10" stroke-width="2" d="M1446.6 938.4s-673.9-90.5-853.4-144.8C481.4 759.8 360.7 714.2 324.5 692s-64-36.2-73.8-39c-9.8-2.8-33.4 0-39 0-5.6 0-27.8-7-39 5.6-11.1 12.6-34.8 11.1 0 23.7s156.6 81.6 342.5 125.3c271.7 63.8 931.4 130.8 931.4 130.8z"/>
</svg>